<svg xmlns="http://www.w3.org/2000/svg" xmlns:xlink="http://www.w3.org/1999/xlink" viewBox="0 0 229.86 46.78"><defs><style>.cls-1{fill:#323e48;}.cls-2{fill:#1302e7;}.cls-3{fill:#6763fb;}.cls-4{fill:#47cdfb;}.cls-5{fill:#fff;}.cls-6{fill:url(#New_Gradient_Swatch_1);}.cls-7{fill:#f68b1f;}</style><linearGradient id="New_Gradient_Swatch_1" x1="64.2" y1="26.9" x2="229.86" y2="26.9" gradientUnits="userSpaceOnUse"><stop offset="0" stop-color="#46c7f3"/><stop offset="0.1" stop-color="#44bef2"/><stop offset="0.27" stop-color="#3da6f1"/><stop offset="0.48" stop-color="#337eef"/><stop offset="0.73" stop-color="#2547eb"/><stop offset="1" stop-color="#1302e7"/></linearGradient></defs><g id="Layer_2" data-name="Layer 2"><g id="Layer_1-2" data-name="Layer 1"><path class="cls-1" d="M64.53,19.66V19l.8-.13V15.13l-.8-.14v-.62h1.76v4.54l.79.13v.62Zm.75-6.59V12h1v1Z"/><path class="cls-1" d="M67.85,19.66V19l.79-.13V13.3l-.79-.13v-.62h2.08l2.29,5.39h0l2.21-5.39h2.15v.62l-.8.13v5.61l.8.13v.62H74.05V19l.84-.13V13.86h0L72.56,19.4h-.64l-2.39-5.53h0l0,3v2.07l.86.13v.62Z"/><path class="cls-1" d="M77.41,19.66V19l.52-.07,2.49-6.42h.82L83.69,19l.52.07v.62h-2V19L82.7,19l-.46-1.31H79.39L78.91,19l.53.09v.62Zm2.28-2.83h2.25l-1-2.89-.06-.16h0l-.06.16Z"/><path class="cls-1" d="M85,19.66V19l.79-.13V13.3L85,13.17v-.62h1.76l3.49,5.54h0V13.3l-.88-.13v-.62h2.56v.62l-.8.13v6.36h-.88l-3.58-5.57h0v4.81l.88.13v.62Z"/><path class="cls-1" d="M92.46,19.66V19L93,19l2.49-6.42h.82L98.74,19l.53.07v.62h-2V19l.53-.09-.47-1.31H94.45L94,19l.54.09v.62Zm2.29-2.83H97l-1-2.89-.06-.16h0l-.06.16Z"/><path class="cls-1" d="M102.87,19.76a3.08,3.08,0,0,1-1.71-.46A3,3,0,0,1,100.05,18a4.3,4.3,0,0,1-.39-1.88V16a4.3,4.3,0,0,1,.39-1.88,3,3,0,0,1,1.08-1.26,2.74,2.74,0,0,1,1.55-.45,4.5,4.5,0,0,1,1.41.19,3.09,3.09,0,0,1,1,.51v1.43h-.79l-.11-1a1.8,1.8,0,0,0-.58-.23,3.35,3.35,0,0,0-.82-.08,1.78,1.78,0,0,0-1.1.35,2.32,2.32,0,0,0-.77,1,3.49,3.49,0,0,0-.29,1.46v.13a3.72,3.72,0,0,0,.27,1.48,2.09,2.09,0,0,0,.76,1,2,2,0,0,0,1.22.35,3.33,3.33,0,0,0,.83-.08,2.9,2.9,0,0,0,.59-.22V17L102.93,17v-.71h2.32V19a3,3,0,0,1-.88.53A3.92,3.92,0,0,1,102.87,19.76Z"/><path class="cls-1" d="M106.23,19.66V19l.8-.13V13.3l-.8-.13v-.62h5.27v1.71h-.77l-.11-1H108V15.6h2.62v.76H108v2.57h2.79l.1-1h.77v1.71Z"/><path class="cls-1" d="M115.1,19.66V19l.79-.13V13.3l-.79-.13v-.62h3.26a3,3,0,0,1,1.3.26,1.93,1.93,0,0,1,.82.75,2.31,2.31,0,0,1,0,2.24,1.85,1.85,0,0,1-.82.74,2.87,2.87,0,0,1-1.3.27h-1.51v2.1l.8.13v.62Zm1.75-3.61h1.51a1.46,1.46,0,0,0,1.09-.38,1.39,1.39,0,0,0-1.09-2.37h-1.51Z"/><path class="cls-1" d="M120.3,19.66V19l.53-.07,2.48-6.42h.83L126.58,19l.52.07v.62h-2V19l.54-.09-.47-1.31h-2.85L121.8,19l.54.09v.62Zm2.28-2.83h2.26l-1-2.89-.06-.16h0l-.06.16Z"/><path class="cls-1" d="M127.64,19.66V19l.8-.13V13.3l-.8-.13v-.62h3.17a3.38,3.38,0,0,1,1.31.23,1.71,1.71,0,0,1,.81.68,2.18,2.18,0,0,1,0,2.12,1.68,1.68,0,0,1-.77.64,3,3,0,0,1-1.18.23l-1.59,0v2.43l.79.13v.62Zm1.76-3.93h1.31a1.82,1.82,0,0,0,1.17-.31,1.11,1.11,0,0,0,.37-.9,1.18,1.18,0,0,0-.35-.89,1.56,1.56,0,0,0-1.09-.33H129.4Zm2.93,3.93-1.58-3.55h1L133,18.94l.49.09v.63Z"/><path class="cls-1" d="M135.57,19.66V19l.79-.13V13.28h-1.61l-.14,1h-.72V12.55h5.9v1.71h-.71l-.14-1h-1.62v5.63l.8.13v.62Z"/><path class="cls-1" d="M140.69,19.66V19l.79-.13V13.3l-.79-.13v-.62h1.77l3.48,5.54h0V13.3l-.87-.13v-.62h2.55v.62l-.79.13v6.36H146l-3.58-5.57h0v4.81l.87.13v.62Z"/><path class="cls-1" d="M148.25,19.66V19l.8-.13V13.3l-.8-.13v-.62h5.27v1.71h-.78l-.1-1H150V15.6h2.62v.76H150v2.57h2.78l.11-1h.77v1.71Z"/><path class="cls-1" d="M154.63,19.66V19l.79-.13V13.3l-.79-.13v-.62h3.17a3.38,3.38,0,0,1,1.31.23,1.71,1.71,0,0,1,.81.68,2.18,2.18,0,0,1,0,2.12,1.68,1.68,0,0,1-.77.64,3,3,0,0,1-1.18.23l-1.59,0v2.43l.79.13v.62Zm1.76-3.93h1.31a1.82,1.82,0,0,0,1.17-.31,1.11,1.11,0,0,0,.37-.9,1.18,1.18,0,0,0-.35-.89,1.56,1.56,0,0,0-1.09-.33h-1.41Zm2.93,3.93-1.58-3.55h1L160,18.94l.5.09v.63Z"/><path class="cls-1" d="M166.78,19.76a2.93,2.93,0,0,1-1.24-.26,2.8,2.8,0,0,1-.93-.75,3.41,3.41,0,0,1-.58-1.14,4.75,4.75,0,0,1-.21-1.45v-.11A4.79,4.79,0,0,1,164,14.6a3.41,3.41,0,0,1,.58-1.14,2.57,2.57,0,0,1,.93-.75,2.78,2.78,0,0,1,1.24-.26,2.9,2.9,0,0,1,1.28.26,2.46,2.46,0,0,1,.92.75,3.39,3.39,0,0,1,.57,1.14,5.53,5.53,0,0,1,.19,1.45v.11a5.47,5.47,0,0,1-.19,1.45,3.39,3.39,0,0,1-.57,1.14,2.67,2.67,0,0,1-.92.75A3,3,0,0,1,166.78,19.76Zm0-.8a1.78,1.78,0,0,0,1.14-.35,2,2,0,0,0,.64-1,4.63,4.63,0,0,0,.21-1.46V16a4.52,4.52,0,0,0-.21-1.45,2.11,2.11,0,0,0-.64-1,1.82,1.82,0,0,0-1.14-.35,1.68,1.68,0,0,0-1.09.36,2.2,2.2,0,0,0-.67,1,4.28,4.28,0,0,0-.23,1.45v.12a4.34,4.34,0,0,0,.23,1.46,2.15,2.15,0,0,0,.67,1A1.68,1.68,0,0,0,166.78,19Z"/><path class="cls-1" d="M170.27,19.66V19l.8-.13V13.3l-.8-.13v-.62h5.35v1.71h-.77l-.11-1H172v2.47h2.6v.75H172v2.4l.8.13v.62Z"/><path class="cls-1" d="M180.65,19.66V19l.79-.13V13.28h-1.61l-.14,1H179V12.55h5.9v1.71h-.71l-.15-1H182.4v5.63l.8.13v.62Z"/><path class="cls-1" d="M185.56,19.66V19l.79-.13V13.3l-.79-.13v-.62h2.55v.62l-.79.13v2.46h3.39V13.3l-.79-.13v-.62h2.55v.62l-.79.13v5.61l.79.13v.62h-2.55V19l.79-.13V16.52h-3.39v2.39l.79.13v.62Z"/><path class="cls-1" d="M193.06,19.66V19l.8-.13V13.3l-.8-.13v-.62h5.27v1.71h-.78l-.1-1h-2.63V15.6h2.62v.76h-2.62v2.57h2.78l.11-1h.77v1.71Z"/><path class="cls-1" d="M203.82,19.66V19l.8-.13V17.07l-2.19-3.81-.58-.09v-.62h2.45v.62l-.81.09L205,16.05l.1.19h0l.1-.18,1.58-2.79-.84-.09v-.62h2.41v.62l-.62.09L205.58,17v1.91l.79.13v.62Z"/><path class="cls-1" d="M209.06,19.66V19l.79-.13V13.3l-.79-.13v-.62h5.26v1.71h-.77l-.11-1h-2.62V15.6h2.62v.76h-2.62v2.57h2.78l.11-1h.76v1.71Z"/><path class="cls-1" d="M215.18,19.66V19l.53-.07,2.48-6.42H219L221.46,19,222,19v.62h-2V19l.54-.09L220,17.64h-2.85L216.68,19l.54.09v.62Zm2.28-2.83h2.26l-1.05-2.89-.06-.16h0l-.05.16Z"/><path class="cls-1" d="M222.52,19.66V19l.8-.13V13.3l-.8-.13v-.62h3.17a3.38,3.38,0,0,1,1.31.23,1.71,1.71,0,0,1,.81.68,2.18,2.18,0,0,1,0,2.12,1.68,1.68,0,0,1-.77.64,3,3,0,0,1-1.18.23l-1.59,0v2.43l.79.13v.62Zm1.76-3.93h1.31a1.82,1.82,0,0,0,1.17-.31,1.11,1.11,0,0,0,.37-.9,1.18,1.18,0,0,0-.35-.89,1.56,1.56,0,0,0-1.09-.33h-1.41Zm2.93,3.93-1.58-3.55h1l1.32,2.84.49.09v.63Z"/><g id="Bug"><path id="cobalt_blue_shape" data-name="cobalt blue shape" class="cls-2" d="M23.85,1.37C16.06,3.35,10,9.57,6.69,17.65-5.26,47,42.8,44.38,56.24,26.48,53.9,15.94,38.41,5.1,23.85,1.37Z"/><path id="lilac_shape" data-name="lilac shape" class="cls-3" d="M32.82,1a22.32,22.32,0,0,0-9,.4C38.41,5.1,53.9,15.94,56.24,26.48a17.74,17.74,0,0,0,2.19-3.75C61.9,13.68,41.36,2.27,32.82,1Z"/><path id="sky_blue_shape" data-name="sky blue shape" class="cls-4" d="M6.69,17.65C10,9.57,16.06,3.35,23.85,1.37c-6.91-1.78-13.61-2-18.59.26C-3.42,5.74,0,26,5.77,35.54,14.38,49.07,31.12,48.81,44.56,43c10-4.47,13-10.44,11.68-16.5C42.8,44.38-5.26,47,6.69,17.65Z"/><path id="m" class="cls-5" d="M35.79,15.27a6.34,6.34,0,0,0-4.66,2.05,6.32,6.32,0,0,0-11,4.25v7.74h3.32V21.57a3,3,0,1,1,6,0v7.74h3.34V21.57a3,3,0,1,1,6,0v7.74h3.33V21.57A6.31,6.31,0,0,0,35.79,15.27Z"/><path id="i_dot" data-name="i dot" class="cls-5" d="M18.66,10.55a2.38,2.38,0,1,0,2.4,2.39A2.39,2.39,0,0,0,18.66,10.55Z"/></g><rect class="cls-6" x="64.2" y="25.9" width="165.66" height="2"/><path class="cls-7" d="M64.62,40.75v-1L67.15,37a7.48,7.48,0,0,0,.61-.76,2.38,2.38,0,0,0,.31-.58,1.46,1.46,0,0,0,.1-.53,1.22,1.22,0,0,0-.26-.78,1,1,0,0,0-.77-.31,1,1,0,0,0-.82.35,1.49,1.49,0,0,0-.28,1H64.51v0a2.39,2.39,0,0,1,.31-1.28,2.28,2.28,0,0,1,.92-.9,3.34,3.34,0,0,1,2.81,0,2.1,2.1,0,0,1,.89.8,2.22,2.22,0,0,1,.31,1.19,2.16,2.16,0,0,1-.17.88,3.76,3.76,0,0,1-.52.87,13.71,13.71,0,0,1-.91,1l-1.52,1.64v0h2l.08-.74H70v1.94Z"/><path class="cls-7" d="M73.48,40.86a2.45,2.45,0,0,1-1.94-.8,3.41,3.41,0,0,1-.71-2.35V36a3.42,3.42,0,0,1,.71-2.35,2.7,2.7,0,0,1,3.86,0A3.42,3.42,0,0,1,76.12,36v1.73a3.41,3.41,0,0,1-.72,2.35A2.41,2.41,0,0,1,73.48,40.86Zm0-1.2a.88.88,0,0,0,.8-.43,2.66,2.66,0,0,0,.27-1.37v-2a2.51,2.51,0,0,0-.28-1.36.88.88,0,0,0-.8-.43.9.9,0,0,0-.81.43,2.62,2.62,0,0,0-.27,1.36v2a2.55,2.55,0,0,0,.28,1.37A.89.89,0,0,0,73.48,39.66Z"/><path class="cls-7" d="M77,40.75v-1L79.54,37a6.1,6.1,0,0,0,.6-.76,2.45,2.45,0,0,0,.32-.58,1.69,1.69,0,0,0,.09-.53,1.17,1.17,0,0,0-.26-.78.93.93,0,0,0-.76-.31,1,1,0,0,0-.82.35,1.49,1.49,0,0,0-.28,1H76.9v0a2.47,2.47,0,0,1,.3-1.28,2.31,2.31,0,0,1,.93-.9,2.92,2.92,0,0,1,1.42-.33,3,3,0,0,1,1.39.29,2.1,2.1,0,0,1,.89.8A2.41,2.41,0,0,1,82,36a4.15,4.15,0,0,1-.52.87c-.24.3-.54.65-.91,1L79,39.53v0h2l.08-.74h1.22v1.94Z"/><path class="cls-7" d="M85.86,40.86a2.43,2.43,0,0,1-1.93-.8,3.41,3.41,0,0,1-.72-2.35V36a3.47,3.47,0,0,1,.71-2.35,2.72,2.72,0,0,1,3.87,0A3.47,3.47,0,0,1,88.5,36v1.73a3.46,3.46,0,0,1-.71,2.35A2.43,2.43,0,0,1,85.86,40.86Zm0-1.2a.9.9,0,0,0,.81-.43,2.66,2.66,0,0,0,.27-1.37v-2a2.51,2.51,0,0,0-.28-1.36.9.9,0,0,0-.81-.43.88.88,0,0,0-.8.43,2.61,2.61,0,0,0-.28,1.36v2a2.65,2.65,0,0,0,.28,1.37A.91.91,0,0,0,85.86,39.66Z"/><path class="cls-1" d="M95.16,40.86a5.93,5.93,0,0,1-1.57-.19,4.6,4.6,0,0,1-1.4-.67V38.11h1.22l.16,1.11a1.75,1.75,0,0,0,.67.33,3,3,0,0,0,.92.13,1.9,1.9,0,0,0,.72-.12,1,1,0,0,0,.45-.34.85.85,0,0,0,.15-.51.94.94,0,0,0-.14-.5,1.27,1.27,0,0,0-.45-.39,4.21,4.21,0,0,0-.85-.35,8,8,0,0,1-1.54-.6,2.45,2.45,0,0,1-.91-.78A1.84,1.84,0,0,1,92.28,35a1.89,1.89,0,0,1,.35-1.12,2.38,2.38,0,0,1,1-.77,3.77,3.77,0,0,1,1.44-.29,5.25,5.25,0,0,1,1.6.22,3.81,3.81,0,0,1,1.2.63v1.76H96.67l-.2-1.08a2.24,2.24,0,0,0-.55-.22,2.75,2.75,0,0,0-.79-.1,1.9,1.9,0,0,0-.66.11,1.14,1.14,0,0,0-.46.33.85.85,0,0,0-.16.52.72.72,0,0,0,.14.46,1.33,1.33,0,0,0,.49.37,7.48,7.48,0,0,0,.94.38,4.84,4.84,0,0,1,2,.95,2,2,0,0,1,.67,1.55,1.88,1.88,0,0,1-.36,1.15,2.17,2.17,0,0,1-1,.75A3.94,3.94,0,0,1,95.16,40.86Z"/><path class="cls-1" d="M102.25,40.86a3.43,3.43,0,0,1-1.44-.29,3.37,3.37,0,0,1-1.12-.83A3.91,3.91,0,0,1,99,38.48a4.72,4.72,0,0,1-.25-1.58v-.12A4.66,4.66,0,0,1,99,35.21,3.71,3.71,0,0,1,99.69,34a3.21,3.21,0,0,1,1.12-.84,3.53,3.53,0,0,1,1.44-.29,3.61,3.61,0,0,1,1.45.29,3.3,3.3,0,0,1,1.12.84,3.57,3.57,0,0,1,.73,1.26,4.66,4.66,0,0,1,.26,1.57v.12a4.72,4.72,0,0,1-.26,1.58,3.76,3.76,0,0,1-.73,1.26,3.28,3.28,0,0,1-1.12.83A3.45,3.45,0,0,1,102.25,40.86Zm0-1.22a1.75,1.75,0,0,0,1.11-.34,2.12,2.12,0,0,0,.66-1,4.19,4.19,0,0,0,.22-1.44v-.13a4.11,4.11,0,0,0-.22-1.42,2.06,2.06,0,0,0-.67-1,1.91,1.91,0,0,0-2.19,0,2.12,2.12,0,0,0-.66,1,4.4,4.4,0,0,0-.21,1.43v.13a4.46,4.46,0,0,0,.21,1.44,2.12,2.12,0,0,0,.66,1A1.69,1.69,0,0,0,102.25,39.64Z"/><path class="cls-1" d="M110.3,40.86a3.8,3.8,0,0,1-1.63-.32,2.45,2.45,0,0,1-1.1-.93,2.73,2.73,0,0,1-.39-1.49V34l-.84-.16v-1h3.24v1l-.83.16v4.08a1.86,1.86,0,0,0,.18.86,1.21,1.21,0,0,0,.54.51,1.92,1.92,0,0,0,.83.17,2,2,0,0,0,.85-.17,1.21,1.21,0,0,0,.54-.51,1.85,1.85,0,0,0,.19-.86V34l-.84-.16v-1h3.24v1l-.83.16v4.08a2.74,2.74,0,0,1-.4,1.49,2.45,2.45,0,0,1-1.1.93A3.86,3.86,0,0,1,110.3,40.86Z"/><path class="cls-1" d="M116.59,40.75v-.94l.83-.16V34.14H116l-.08.93h-1.19V32.93h7v2.14h-1.2l-.08-.93H119v5.51l.85.16v.94Z"/><path class="cls-1" d="M122.25,40.75v-.94l.83-.16V34l-.83-.16v-1h3.24v1l-.84.16v2.25h3.19V34l-.84-.16v-1h3.24v1l-.84.16v5.61l.84.16v.94H127v-.94l.84-.16V37.5h-3.19v2.15l.84.16v.94Z"/><path class="cls-1" d="M133.46,40.75v-.94l.56-.08,2.48-6.8h1.61l2.47,6.8.56.08v.94h-2.67v-.94l.55-.1-.35-1.07h-2.75l-.34,1.07.54.1v.94Zm2.83-3.26h2l-.91-2.68-.08-.24h0l-.08.25Z"/><path class="cls-1" d="M141.66,40.75v-.94l.83-.16V34l-.83-.16v-1h3.15L147,38.38h0L149,32.93h3.16v1l-.84.16v5.61l.84.16v.94H149v-.94l.87-.16v-1.5l0-3.53h0l-2.34,6h-1.18l-2.39-6h0L144,38v1.66l.93.16v.94Z"/><path class="cls-1" d="M152.76,40.75v-.94l.83-.16V34l-.83-.16v-1h6.07V35h-1.21l-.07-.9h-2.39v2h2.65v1.2h-2.65v2.24h2.52l.07-.94h1.19v2.14Z"/><path class="cls-1" d="M159.78,40.75v-.94l.83-.16V34l-.83-.16v-1h3.71a3.83,3.83,0,0,1,1.55.28,2.32,2.32,0,0,1,1,.8,2.43,2.43,0,0,1,0,2.48,2.43,2.43,0,0,1-1,.86,3.15,3.15,0,0,1-1.41.31h-1.48v2l.84.16v.94Zm2.4-4.3h1.28a1.52,1.52,0,0,0,1-.28,1,1,0,0,0,.34-.84,1.18,1.18,0,0,0-.33-.87,1.42,1.42,0,0,0-1-.32h-1.31Zm2.64,4.3-1.32-3.38,1.41-.35,1.14,2.64.67.15v.94Z"/><path class="cls-1" d="M167.34,40.75v-.94l.84-.16V34l-.84-.16v-1h3.24v1l-.83.16v5.61l.83.16v.94Z"/><path class="cls-1" d="M174.9,40.86a3.92,3.92,0,0,1-2-.47,3.25,3.25,0,0,1-1.3-1.35,4.32,4.32,0,0,1-.46-2.06v-.27a4.44,4.44,0,0,1,.44-2,3.32,3.32,0,0,1,1.27-1.38,3.61,3.61,0,0,1,1.95-.5,4.79,4.79,0,0,1,1.49.22,3.51,3.51,0,0,1,1.24.69v1.89h-1.16l-.16-1.19a3.61,3.61,0,0,0-.39-.22,3,3,0,0,0-.45-.14,3,3,0,0,0-.53,0,2.07,2.07,0,0,0-1.15.32,2.14,2.14,0,0,0-.73.93,3.61,3.61,0,0,0-.25,1.42V37A3.46,3.46,0,0,0,173,38.4a2,2,0,0,0,1.93,1.26,2.68,2.68,0,0,0,.68-.08,3.47,3.47,0,0,0,.62-.2l.16-1.1h1.16v1.87a4.4,4.4,0,0,1-1.13.51A5.18,5.18,0,0,1,174.9,40.86Z"/><path class="cls-1" d="M178.19,40.75v-.94l.56-.08,2.49-6.8h1.6l2.48,6.8.55.08v.94h-2.66v-.94l.54-.1-.34-1.07h-2.75l-.34,1.07.54.1v.94ZM181,37.49h2l-.91-2.68-.08-.24h0l-.08.25Z"/></g></g></svg>