<svg xmlns="http://www.w3.org/2000/svg" xmlns:xlink="http://www.w3.org/1999/xlink" viewBox="0 0 248.48 46.78"><defs><style>.cls-1{fill:#f68b1f;}.cls-2{fill:#323e48;}.cls-3{fill:#1302e7;}.cls-4{fill:#6763fb;}.cls-5{fill:#47cdfb;}.cls-6{fill:#fff;}.cls-7{fill:url(#New_Gradient_Swatch_1);}</style><linearGradient id="New_Gradient_Swatch_1" x1="64.2" y1="26.9" x2="248.48" y2="26.9" gradientUnits="userSpaceOnUse"><stop offset="0" stop-color="#46c7f3"/><stop offset="0.1" stop-color="#44bef2"/><stop offset="0.27" stop-color="#3da6f1"/><stop offset="0.48" stop-color="#337eef"/><stop offset="0.73" stop-color="#2547eb"/><stop offset="1" stop-color="#1302e7"/></linearGradient></defs><g id="Layer_2" data-name="Layer 2"><g id="Layer_1-2" data-name="Layer 1"><path class="cls-1" d="M64.62,19.42v-1l2.53-2.72a7.48,7.48,0,0,0,.61-.76,2.25,2.25,0,0,0,.31-.59,1.39,1.39,0,0,0,.1-.53,1.19,1.19,0,0,0-.26-.77,1,1,0,0,0-.77-.32,1,1,0,0,0-.82.36A1.48,1.48,0,0,0,66,14H64.51v0a2.37,2.37,0,0,1,.31-1.27,2.28,2.28,0,0,1,.92-.9,2.93,2.93,0,0,1,1.43-.33,3.09,3.09,0,0,1,1.38.28,2.12,2.12,0,0,1,.89.81,2.22,2.22,0,0,1,.31,1.19,2.19,2.19,0,0,1-.17.88,3.52,3.52,0,0,1-.52.86,12,12,0,0,1-.91,1l-1.52,1.63v0h2l.08-.75H70v2Z"/><path class="cls-1" d="M73.48,19.53a2.48,2.48,0,0,1-1.94-.8,3.43,3.43,0,0,1-.71-2.36V14.65a3.45,3.45,0,0,1,.71-2.36,2.73,2.73,0,0,1,3.86,0,3.45,3.45,0,0,1,.72,2.36v1.72a3.43,3.43,0,0,1-.72,2.36A2.44,2.44,0,0,1,73.48,19.53Zm0-1.2a.9.9,0,0,0,.8-.43,2.7,2.7,0,0,0,.27-1.38v-2a2.55,2.55,0,0,0-.28-1.37.9.9,0,0,0-.8-.43.92.92,0,0,0-.81.43,2.66,2.66,0,0,0-.27,1.37v2a2.59,2.59,0,0,0,.28,1.38A.91.91,0,0,0,73.48,18.33Z"/><path class="cls-1" d="M77,19.42v-1l2.54-2.72a6.1,6.1,0,0,0,.6-.76,2.32,2.32,0,0,0,.32-.59,1.6,1.6,0,0,0,.09-.53,1.14,1.14,0,0,0-.26-.77.93.93,0,0,0-.76-.32,1,1,0,0,0-.82.36,1.48,1.48,0,0,0-.28,1H76.9v0a2.46,2.46,0,0,1,.3-1.27,2.31,2.31,0,0,1,.93-.9,2.92,2.92,0,0,1,1.42-.33,3.13,3.13,0,0,1,1.39.28,2.12,2.12,0,0,1,.89.81,2.32,2.32,0,0,1,.31,1.19,2.38,2.38,0,0,1-.17.88,3.86,3.86,0,0,1-.52.86c-.24.31-.54.66-.91,1L79,18.19v0h2l.08-.75h1.22v2Z"/><path class="cls-1" d="M85.86,19.53a2.46,2.46,0,0,1-1.93-.8,3.43,3.43,0,0,1-.72-2.36V14.65a3.5,3.5,0,0,1,.71-2.36,2.74,2.74,0,0,1,3.87,0,3.5,3.5,0,0,1,.71,2.36v1.72a3.48,3.48,0,0,1-.71,2.36A2.46,2.46,0,0,1,85.86,19.53Zm0-1.2a.92.92,0,0,0,.81-.43,2.7,2.7,0,0,0,.27-1.38v-2a2.55,2.55,0,0,0-.28-1.37.92.92,0,0,0-.81-.43.9.9,0,0,0-.8.43,2.65,2.65,0,0,0-.28,1.37v2a2.69,2.69,0,0,0,.28,1.38A.93.93,0,0,0,85.86,18.33Z"/><path class="cls-2" d="M95.69,19.53a4,4,0,0,1-2-.47,3.32,3.32,0,0,1-1.3-1.35A4.33,4.33,0,0,1,92,15.64v-.26a4.51,4.51,0,0,1,.44-2A3.45,3.45,0,0,1,93.66,12a3.72,3.72,0,0,1,2-.49,4.79,4.79,0,0,1,1.49.22,3.64,3.64,0,0,1,1.25.69v1.89H97.18L97,13.1a2.46,2.46,0,0,0-.39-.22,2.15,2.15,0,0,0-.45-.14,2.89,2.89,0,0,0-.53-.05,2,2,0,0,0-1.14.33,2.09,2.09,0,0,0-.74.93,3.61,3.61,0,0,0-.25,1.42v.27a3.51,3.51,0,0,0,.27,1.43,2.13,2.13,0,0,0,.76.93,2.06,2.06,0,0,0,1.17.33,3.16,3.16,0,0,0,.68-.08,3.47,3.47,0,0,0,.62-.2l.16-1.1h1.17v1.87a4.3,4.3,0,0,1-1.14.5A5.17,5.17,0,0,1,95.69,19.53Z"/><path class="cls-2" d="M99.07,19.42v-.94l.83-.16V12.7l-.83-.16V11.6h3.34v.94l-.94.16v5.51h2.21l.07-1.14H105v2.35Z"/><path class="cls-2" d="M109,19.53a3.53,3.53,0,0,1-1.44-.29,3.41,3.41,0,0,1-1.12-.83,3.91,3.91,0,0,1-.72-1.26,4.72,4.72,0,0,1-.25-1.58v-.12a4.72,4.72,0,0,1,.25-1.58,3.91,3.91,0,0,1,.72-1.26,3.18,3.18,0,0,1,1.12-.83,3.37,3.37,0,0,1,1.44-.29,3.45,3.45,0,0,1,1.45.29,3.28,3.28,0,0,1,1.12.83,3.76,3.76,0,0,1,.73,1.26,4.72,4.72,0,0,1,.26,1.58v.12a4.72,4.72,0,0,1-.26,1.58,3.76,3.76,0,0,1-.73,1.26,3.41,3.41,0,0,1-1.12.83A3.61,3.61,0,0,1,109,19.53Zm0-1.22a1.77,1.77,0,0,0,1.11-.34,2.12,2.12,0,0,0,.66-1,4.23,4.23,0,0,0,.22-1.44v-.13a4.17,4.17,0,0,0-.22-1.43,2.13,2.13,0,0,0-.67-1,1.95,1.95,0,0,0-2.2,0,2.21,2.21,0,0,0-.65.95,4.46,4.46,0,0,0-.21,1.44v.13a4.5,4.5,0,0,0,.21,1.44,2.12,2.12,0,0,0,.66,1A1.69,1.69,0,0,0,109,18.31Z"/><path class="cls-2" d="M117,19.53a4,4,0,0,1-1.63-.32,2.54,2.54,0,0,1-1.1-.94,2.68,2.68,0,0,1-.39-1.48V12.7l-.84-.16V11.6h3.24v.94l-.83.16v4.09a1.86,1.86,0,0,0,.18.86,1.27,1.27,0,0,0,.54.51,1.92,1.92,0,0,0,.83.17,2,2,0,0,0,.85-.17,1.27,1.27,0,0,0,.54-.51,1.85,1.85,0,0,0,.19-.86V12.7l-.84-.16V11.6H121v.94l-.83.16v4.09a2.74,2.74,0,0,1-.4,1.49,2.45,2.45,0,0,1-1.1.93A4,4,0,0,1,117,19.53Z"/><path class="cls-2" d="M121.5,19.42v-.94l.84-.18V12.73l-.84-.19V11.6h3.43a3.35,3.35,0,0,1,3.1,1.85,4.38,4.38,0,0,1,.44,2v.14a4.24,4.24,0,0,1-.44,2,3.33,3.33,0,0,1-1.24,1.36,3.4,3.4,0,0,1-1.84.5Zm2.41-1.2h1a1.76,1.76,0,0,0,1.1-.34,2.16,2.16,0,0,0,.69-.94,3.62,3.62,0,0,0,.24-1.36v-.15a3.59,3.59,0,0,0-.24-1.36,2.07,2.07,0,0,0-.69-.93,1.76,1.76,0,0,0-1.1-.34h-1Z"/><path class="cls-2" d="M131.85,19.42v-.94l.83-.16V12.7l-.83-.16V11.6h6.07v2.11h-1.2l-.07-.9h-2.4v2h2.65V16h-2.65v2.23h2.53l.07-.93H138v2.14Z"/><path class="cls-2" d="M138.77,19.42v-.94l.68-.13,2.22-2.8-2.09-2.87-.63-.14V11.6H142v.94l-.74.07,1.34,1.88,1.34-1.88-.73-.07V11.6h3v.94l-.7.14-2,2.73,2.24,2.93.75.14v.94h-3.13v-.94l.67-.07-1.45-2-1.48,2,.65.07v.94Z"/><path class="cls-2" d="M150.57,19.53a4,4,0,0,1-2-.47,3.25,3.25,0,0,1-1.3-1.35,4.33,4.33,0,0,1-.46-2.07v-.26a4.38,4.38,0,0,1,.44-2A3.45,3.45,0,0,1,148.54,12a3.67,3.67,0,0,1,2-.49,4.79,4.79,0,0,1,1.49.22,3.6,3.6,0,0,1,1.24.69v1.89h-1.16l-.16-1.19a2.46,2.46,0,0,0-.39-.22,2.15,2.15,0,0,0-.45-.14,3,3,0,0,0-.53-.05,2,2,0,0,0-1.15.33,2.14,2.14,0,0,0-.73.93,3.61,3.61,0,0,0-.25,1.42v.27a3.69,3.69,0,0,0,.26,1.43,2.15,2.15,0,0,0,.77.93,2.06,2.06,0,0,0,1.17.33,3.23,3.23,0,0,0,.68-.08,3.75,3.75,0,0,0,.62-.2l.16-1.1h1.16v1.87a4,4,0,0,1-1.14.5A5.06,5.06,0,0,1,150.57,19.53Z"/><path class="cls-2" d="M153.94,19.42v-.94l.84-.16V12.7l-.84-.16V11.6H160v2.11h-1.2l-.07-.9h-2.4v2H159V16h-2.65v2.23h2.53l.07-.93h1.19v2.14Z"/><path class="cls-2" d="M161,19.42v-.94l.83-.16V12.7l-.83-.16V11.6h3.35v.94l-.95.16v5.51h2.21l.07-1.14h1.2v2.35Z"/><path class="cls-2" d="M167.42,19.42v-.94l.83-.16V12.7l-.83-.16V11.6h3.34v.94l-.94.16v5.51H172l.08-1.14h1.2v2.35Z"/><path class="cls-2" d="M173.86,19.42v-.94l.83-.16V12.7l-.83-.16V11.6h6.07v2.11h-1.2l-.07-.9h-2.4v2h2.65V16h-2.65v2.23h2.53l.07-.93h1.19v2.14Z"/><path class="cls-2" d="M180.89,19.42v-.94l.83-.16V12.7l-.83-.16V11.6h2.42l3.4,5.42h0V12.7l-1-.16V11.6H189v.94l-.84.16v6.72h-1.52l-3.48-5.37h0v4.27l1,.16v.94Z"/><path class="cls-2" d="M193.22,19.53a4,4,0,0,1-2-.47,3.32,3.32,0,0,1-1.3-1.35,4.33,4.33,0,0,1-.46-2.07v-.26a4.51,4.51,0,0,1,.44-2A3.45,3.45,0,0,1,191.19,12a3.72,3.72,0,0,1,1.95-.49,4.79,4.79,0,0,1,1.49.22,3.64,3.64,0,0,1,1.25.69v1.89h-1.17l-.16-1.19a2.46,2.46,0,0,0-.39-.22,2.15,2.15,0,0,0-.45-.14,2.89,2.89,0,0,0-.53-.05A1.94,1.94,0,0,0,192,13a2.09,2.09,0,0,0-.74.93,3.61,3.61,0,0,0-.25,1.42v.27a3.51,3.51,0,0,0,.27,1.43,2.13,2.13,0,0,0,.76.93,2.06,2.06,0,0,0,1.17.33,3.16,3.16,0,0,0,.68-.08,3.47,3.47,0,0,0,.62-.2l.16-1.1h1.17v1.87a4.3,4.3,0,0,1-1.14.5A5.17,5.17,0,0,1,193.22,19.53Z"/><path class="cls-2" d="M196.6,19.42v-.94l.83-.16V12.7l-.83-.16V11.6h6.07v2.11h-1.21l-.07-.9H199v2h2.65V16H199v2.23h2.52l.07-.93h1.19v2.14Z"/><g id="Bug"><path id="cobalt_blue_shape" data-name="cobalt blue shape" class="cls-3" d="M23.85,1.37C16.06,3.35,10,9.57,6.69,17.65-5.26,47,42.8,44.38,56.24,26.48,53.9,15.94,38.41,5.1,23.85,1.37Z"/><path id="lilac_shape" data-name="lilac shape" class="cls-4" d="M32.82,1a22.32,22.32,0,0,0-9,.4C38.41,5.1,53.9,15.94,56.24,26.48a17.74,17.74,0,0,0,2.19-3.75C61.9,13.68,41.36,2.27,32.82,1Z"/><path id="sky_blue_shape" data-name="sky blue shape" class="cls-5" d="M6.69,17.65C10,9.57,16.06,3.35,23.85,1.37c-6.91-1.78-13.61-2-18.59.26C-3.42,5.74,0,26,5.77,35.54,14.38,49.07,31.12,48.81,44.56,43c10-4.47,13-10.44,11.68-16.5C42.8,44.38-5.26,47,6.69,17.65Z"/><path id="m" class="cls-6" d="M35.79,15.27a6.34,6.34,0,0,0-4.66,2.05,6.32,6.32,0,0,0-11,4.25v7.74h3.32V21.57a3,3,0,1,1,6,0v7.74h3.34V21.57a3,3,0,1,1,6,0v7.74h3.33V21.57A6.31,6.31,0,0,0,35.79,15.27Z"/><path id="i_dot" data-name="i dot" class="cls-6" d="M18.66,10.55a2.38,2.38,0,1,0,2.4,2.39A2.39,2.39,0,0,0,18.66,10.55Z"/></g><rect class="cls-7" x="64.2" y="25.9" width="184.28" height="2"/><path class="cls-2" d="M64.53,40.75v-.61l.8-.14V36.22l-.8-.13v-.62h1.76V40l.79.14v.61Zm.75-6.59v-1h1v1Z"/><path class="cls-2" d="M67.85,40.75v-.61l.79-.14V34.4l-.79-.14v-.62h2.08L72.22,39h0l2.21-5.4h2.15v.62l-.8.14V40l.8.14v.61H74.05v-.61l.84-.14V35h0L72.56,40.5h-.64L69.53,35h0l0,3V40l.86.14v.61Z"/><path class="cls-2" d="M77.41,40.75v-.61l.52-.08,2.49-6.42h.82l2.45,6.42.52.08v.61h-2v-.61l.53-.1-.46-1.31H79.39L78.91,40l.53.1v.61Zm2.28-2.82h2.25L80.9,35l-.06-.16h0l-.06.16Z"/><path class="cls-2" d="M85,40.75v-.61l.79-.14V34.4L85,34.26v-.62h1.76l3.49,5.54h0V34.4l-.88-.14v-.62h2.56v.62l-.8.14v6.35h-.88l-3.58-5.57h0V40l.88.14v.61Z"/><path class="cls-2" d="M92.67,40.75v-.61l.52-.08,2.49-6.42h.82l2.44,6.42.53.08v.61h-2v-.61L98,40l-.47-1.31H94.65L94.16,40l.54.1v.61ZM95,37.93H97.2l-1-2.89-.06-.16h0L96,35Z"/><path class="cls-2" d="M103.07,40.85a3.16,3.16,0,0,1-1.71-.45,3.05,3.05,0,0,1-1.11-1.27,4.3,4.3,0,0,1-.39-1.88v-.11a4.31,4.31,0,0,1,.39-1.89A3.17,3.17,0,0,1,101.33,34a2.74,2.74,0,0,1,1.55-.45,4.5,4.5,0,0,1,1.41.19,3.55,3.55,0,0,1,1,.51v1.44h-.79l-.11-1a1.61,1.61,0,0,0-.58-.24,3.93,3.93,0,0,0-.82-.08,1.85,1.85,0,0,0-1.1.35,2.38,2.38,0,0,0-.77,1,3.54,3.54,0,0,0-.29,1.47v.12a3.78,3.78,0,0,0,.27,1.49,2,2,0,0,0,2,1.33,3.29,3.29,0,0,0,.83-.09,2.9,2.9,0,0,0,.59-.22V38.09L103.13,38v-.71h2.32v2.76a3,3,0,0,1-.88.52A3.92,3.92,0,0,1,103.07,40.85Z"/><path class="cls-2" d="M106.43,40.75v-.61l.8-.14V34.4l-.8-.14v-.62h5.27v1.71h-.77l-.11-1h-2.63V36.7h2.62v.75h-2.62V40H111l.1-1h.77v1.7Z"/><path class="cls-2" d="M115.3,40.75v-.61l.79-.14V34.4l-.79-.14v-.62h3.26a2.87,2.87,0,0,1,1.3.27,1.85,1.85,0,0,1,.82.74,2.15,2.15,0,0,1,.29,1.12,2.12,2.12,0,0,1-.29,1.12,1.93,1.93,0,0,1-.82.75,3,3,0,0,1-1.3.26h-1.51V40l.8.14v.61Zm1.75-3.6h1.51A1.28,1.28,0,0,0,120,35.78a1.48,1.48,0,0,0-.35-1,1.42,1.42,0,0,0-1.09-.39h-1.51Z"/><path class="cls-2" d="M120.5,40.75v-.61l.53-.08,2.48-6.42h.83l2.44,6.42.52.08v.61h-2v-.61l.54-.1-.47-1.31h-2.85L122,40l.54.1v.61Zm2.28-2.82H125L124,35l-.06-.16h0l-.06.16Z"/><path class="cls-2" d="M128,40.75v-.61l.8-.14V34.4l-.8-.14v-.61h3.17a3.17,3.17,0,0,1,1.31.23,1.69,1.69,0,0,1,.81.67,2.18,2.18,0,0,1,0,2.12,1.7,1.7,0,0,1-.77.65,3.18,3.18,0,0,1-1.18.23l-1.59,0V40l.79.14v.61Zm1.76-3.93h1.31a1.76,1.76,0,0,0,1.17-.31,1.08,1.08,0,0,0,.37-.9,1.14,1.14,0,0,0-.35-.88,1.56,1.56,0,0,0-1.09-.33H129.8Zm2.93,3.93-1.58-3.55h1L133.43,40l.49.09v.63Z"/><path class="cls-2" d="M136.17,40.75v-.61L137,40V34.37h-1.61l-.14,1h-.72V33.64h5.9v1.72h-.71l-.14-1h-1.62V40l.8.14v.61Z"/><path class="cls-2" d="M141.29,40.75v-.61l.79-.14V34.4l-.79-.14v-.62h1.77l3.48,5.54h0V34.4l-.87-.14v-.62h2.55v.62l-.79.14v6.35h-.88L143,35.18h0V40l.87.14v.61Z"/><path class="cls-2" d="M149.05,40.75v-.61l.8-.14V34.4l-.8-.14v-.62h5.27v1.71h-.78l-.1-1h-2.63V36.7h2.62v.75h-2.62V40h2.78l.11-1h.77v1.7Z"/><path class="cls-2" d="M155.43,40.75v-.61l.79-.14V34.4l-.79-.14v-.61h3.17a3.2,3.2,0,0,1,1.31.23,1.69,1.69,0,0,1,.81.67,2.18,2.18,0,0,1,0,2.12,1.7,1.7,0,0,1-.77.65,3.22,3.22,0,0,1-1.18.23l-1.59,0V40l.79.14v.61Zm1.76-3.93h1.31a1.76,1.76,0,0,0,1.17-.31,1.08,1.08,0,0,0,.37-.9,1.14,1.14,0,0,0-.35-.88,1.56,1.56,0,0,0-1.09-.33h-1.41Zm2.93,3.93-1.58-3.55h1L160.81,40l.5.09v.63Z"/><path class="cls-2" d="M167.24,40.85a4.05,4.05,0,0,1-2.4-.77V38.56h.75l.16,1.12a2.67,2.67,0,0,0,.69.3,2.92,2.92,0,0,0,.8.11,2.05,2.05,0,0,0,.83-.15,1.27,1.27,0,0,0,.52-.41,1.1,1.1,0,0,0,.18-.62,1,1,0,0,0-.16-.58,1.24,1.24,0,0,0-.51-.43,3.84,3.84,0,0,0-1-.33,5,5,0,0,1-1.24-.46,2.17,2.17,0,0,1-.77-.69,1.75,1.75,0,0,1-.26-.94,1.7,1.7,0,0,1,.3-1,2,2,0,0,1,.82-.7,2.79,2.79,0,0,1,1.23-.25,3.38,3.38,0,0,1,1.32.23,3.21,3.21,0,0,1,.95.55v1.42h-.75l-.16-1a1.9,1.9,0,0,0-.55-.29,2.39,2.39,0,0,0-.81-.12,1.81,1.81,0,0,0-.72.14,1.16,1.16,0,0,0-.49.41,1,1,0,0,0-.18.61A1,1,0,0,0,166,36a1.32,1.32,0,0,0,.52.41,5.62,5.62,0,0,0,1,.32,3.71,3.71,0,0,1,1.7.83,1.75,1.75,0,0,1,.58,1.34,1.68,1.68,0,0,1-.31,1,1.92,1.92,0,0,1-.86.69A3.17,3.17,0,0,1,167.24,40.85Z"/><path class="cls-2" d="M173.47,40.85a2.75,2.75,0,0,1-1.24-.26,2.68,2.68,0,0,1-.93-.75,3.42,3.42,0,0,1-.59-1.14,5,5,0,0,1-.2-1.45v-.1a5.2,5.2,0,0,1,.2-1.46,3.42,3.42,0,0,1,.59-1.14,2.8,2.8,0,0,1,.93-.75,2.89,2.89,0,0,1,1.24-.26,3,3,0,0,1,1.28.26,2.67,2.67,0,0,1,.92.75,3.2,3.2,0,0,1,.56,1.14,5.21,5.21,0,0,1,.19,1.46v.1a5,5,0,0,1-.19,1.45,3.2,3.2,0,0,1-.56,1.14,2.56,2.56,0,0,1-.92.75A2.9,2.9,0,0,1,173.47,40.85Zm0-.8a1.73,1.73,0,0,0,1.14-.35,2,2,0,0,0,.64-1,4.65,4.65,0,0,0,.21-1.47v-.11a4.59,4.59,0,0,0-.21-1.46,2,2,0,0,0-.65-1,1.72,1.72,0,0,0-1.13-.36,1.68,1.68,0,0,0-1.09.36,2.26,2.26,0,0,0-.67,1,4.11,4.11,0,0,0-.23,1.46v.11a4.11,4.11,0,0,0,.23,1.46,2.23,2.23,0,0,0,.67,1A1.74,1.74,0,0,0,173.47,40.05Z"/><path class="cls-2" d="M180.45,40.85a2.93,2.93,0,0,1-1.31-.28,2.25,2.25,0,0,1-.9-.83,2.29,2.29,0,0,1-.34-1.28V34.4l-.79-.14v-.62h2.55v.62l-.79.14v4.06a1.72,1.72,0,0,0,.2.89,1.29,1.29,0,0,0,.56.55,1.86,1.86,0,0,0,.84.18,1.93,1.93,0,0,0,.85-.18,1.35,1.35,0,0,0,.57-.54,1.76,1.76,0,0,0,.21-.9V34.4l-.8-.14v-.62h2.56v.62l-.8.14v4.06a2.54,2.54,0,0,1-.32,1.31,2.17,2.17,0,0,1-.91.81A3.3,3.3,0,0,1,180.45,40.85Z"/><path class="cls-2" d="M186.35,40.75v-.61l.79-.14V34.37h-1.61l-.14,1h-.72V33.64h5.91v1.72h-.72l-.14-1H188.1V40l.8.14v.61Z"/><path class="cls-2" d="M191.46,40.75v-.61l.79-.14V34.4l-.79-.14v-.62H194v.62l-.79.14v2.45h3.4V34.4l-.8-.14v-.62h2.55v.62l-.79.14V40l.79.14v.61h-2.55v-.61l.8-.14V37.61h-3.4V40l.79.14v.61Z"/><path class="cls-2" d="M201.6,40.75v-.61l.52-.08,2.49-6.42h.82l2.45,6.42.52.08v.61h-2v-.61l.53-.1-.47-1.31h-2.84L203.09,40l.54.1v.61Zm2.28-2.82h2.25l-1-2.89-.06-.16h0l-.06.16Z"/><path class="cls-2" d="M209.2,40.75v-.61L210,40V34.4l-.79-.14v-.62h2.08l2.29,5.4h0l2.21-5.4H218v.62l-.8.14V40l.8.14v.61H215.4v-.61l.84-.14V35h0l-2.31,5.55h-.64L210.88,35h0l0,3V40l.86.14v.61Z"/><path class="cls-2" d="M218.81,40.75v-.61l.8-.14V34.4l-.8-.14v-.62h5.27v1.71h-.78l-.1-1h-2.63V36.7h2.62v.75h-2.62V40h2.78l.11-1h.77v1.7Z"/><path class="cls-2" d="M225.19,40.75v-.61L226,40V34.4l-.8-.14v-.61h3.17a3.2,3.2,0,0,1,1.31.23,1.69,1.69,0,0,1,.81.67,2.18,2.18,0,0,1,0,2.12,1.7,1.7,0,0,1-.77.65,3.18,3.18,0,0,1-1.18.23l-1.59,0V40l.79.14v.61ZM227,36.82h1.31a1.76,1.76,0,0,0,1.17-.31,1.08,1.08,0,0,0,.37-.9,1.14,1.14,0,0,0-.35-.88,1.56,1.56,0,0,0-1.09-.33H227Zm2.93,3.93L228.3,37.2h1L230.58,40l.49.09v.63Z"/><path class="cls-2" d="M232,40.75v-.61l.8-.14V34.4l-.8-.14v-.62h2.56v.62l-.8.14V40l.8.14v.61Z"/><path class="cls-2" d="M238.51,40.85a3.11,3.11,0,0,1-1.78-.47,2.88,2.88,0,0,1-1.08-1.28,4.52,4.52,0,0,1-.36-1.85v-.1a4.38,4.38,0,0,1,.38-1.86,2.91,2.91,0,0,1,2.76-1.75,3.62,3.62,0,0,1,1.26.21,3.15,3.15,0,0,1,.94.55v1.53h-.76l-.11-1.12a1.33,1.33,0,0,0-.35-.2,2.13,2.13,0,0,0-.45-.13,3.1,3.1,0,0,0-.54-.05,1.92,1.92,0,0,0-1.18.36,2.18,2.18,0,0,0-.73,1,3.89,3.89,0,0,0-.25,1.46v.11a4.11,4.11,0,0,0,.26,1.53,2.08,2.08,0,0,0,.78,1,2.25,2.25,0,0,0,1.24.33,2.93,2.93,0,0,0,.67-.08,2,2,0,0,0,.54-.22l.11-1h.75v1.55a3.31,3.31,0,0,1-1,.38A4.42,4.42,0,0,1,238.51,40.85Z"/><path class="cls-2" d="M241.54,40.75v-.61l.53-.08,2.48-6.42h.83l2.44,6.42.52.08v.61h-2v-.61l.54-.1-.47-1.31h-2.85L243,40l.54.1v.61Zm2.28-2.82h2.26L245,35l-.06-.16h0l-.06.16Z"/></g></g></svg>