<svg id="Layer_1" data-name="Layer 1" xmlns="http://www.w3.org/2000/svg" viewBox="0 0 172.45 57.6"><defs><style>.cls-1{fill:#333d47;}.cls-2{fill:#92deff;}.cls-3{fill:#6778f2;}.cls-4{fill:#3b69f2;}.cls-5{fill:#fff;}</style></defs><title>Cloud Excellence Partner South America</title><path class="cls-1" d="M172.45,57.67h-143V.76H167.31a5.14,5.14,0,0,1,5.14,5.1Z"/><path class="cls-2" d="M5.84,1.31C28.44-7.08,79,27,45,42.68c-12.9,5.94-29.78,6.43-38.6-6.17C.8,28.45-4.39,5.51,5.84,1.31Z"/><path class="cls-3" d="M32.84.94a22.6,22.6,0,0,0-9,.41c-.43.12-.85.24-1.27.38,14.85,4,30.19,14.81,33.12,25.49l.59-.75a17.88,17.88,0,0,0,2.18-3.74C61.91,13.65,41.38,2.25,32.84.94Z"/><path class="cls-4" d="M23.81,1.35C16.06,3.36,10,9.57,6.72,17.64-5.22,47,42.84,44.4,56.25,26.47,53.89,15.92,38.47,5.05,23.81,1.35Z"/><path class="cls-5" d="M35.8,15.26a6.32,6.32,0,0,0-4.66,2,6.31,6.31,0,0,0-11,4.27v7.74H23.5V21.58a3,3,0,1,1,6,0v7.74H32.8V21.58a3,3,0,1,1,6,0v7.74h3.32V21.58A6.32,6.32,0,0,0,35.8,15.26Z"/><path class="cls-5" d="M18.68,10.53a2.39,2.39,0,1,1-2.37,2.4A2.39,2.39,0,0,1,18.68,10.53Z"/><path class="cls-5" d="M64.55,13.37a1.18,1.18,0,0,1,1.63-1.06,1.07,1.07,0,0,1,.38.24,1,1,0,0,1,.25.37,1.17,1.17,0,0,1,0,.9,1.15,1.15,0,0,1-.25.37,1.25,1.25,0,0,1-.38.25,1.17,1.17,0,0,1-1.54-.62A1.13,1.13,0,0,1,64.55,13.37Zm.27,1.9h1.82V21H64.82Z"/><path class="cls-5" d="M77.05,21H75.17V15.85L73.37,21H71.94l-1.85-5.16V21H68.21V12.68h2.22l2.23,5.8,2.2-5.8h2.19Z"/><path class="cls-5" d="M84.39,15.27V21H82.57V20.2a1.48,1.48,0,0,1-.29.38,1.58,1.58,0,0,1-.41.29,2.5,2.5,0,0,1-.5.21,2.08,2.08,0,0,1-.55.07,2.7,2.7,0,0,1-1.14-.23,2.54,2.54,0,0,1-.88-.63,2.68,2.68,0,0,1-.57-.95,3.36,3.36,0,0,1-.21-1.2A3.27,3.27,0,0,1,78.23,17a2.72,2.72,0,0,1,.57-1,2.82,2.82,0,0,1,.88-.63,2.87,2.87,0,0,1,1.14-.23,2.09,2.09,0,0,1,.55.08,2,2,0,0,1,.5.21,1.43,1.43,0,0,1,.41.31,1.62,1.62,0,0,1,.29.37v-.83ZM81.2,19.61a1.28,1.28,0,0,0,.56-.12,1.38,1.38,0,0,0,.43-.32,1.42,1.42,0,0,0,.28-.46,1.56,1.56,0,0,0,.1-.57,1.5,1.5,0,0,0-.1-.56,1.53,1.53,0,0,0-.28-.46,1.24,1.24,0,0,0-.43-.32,1.28,1.28,0,0,0-.56-.12,1.31,1.31,0,0,0-.56.12,1.34,1.34,0,0,0-.43.32,1.77,1.77,0,0,0-.28.46,1.74,1.74,0,0,0-.1.56,1.8,1.8,0,0,0,.1.57,1.62,1.62,0,0,0,.28.46,1.51,1.51,0,0,0,.43.32A1.31,1.31,0,0,0,81.2,19.61Z"/><path class="cls-5" d="M85.94,15.27h1.82v.84a1.67,1.67,0,0,1,.72-.72,2.45,2.45,0,0,1,1.16-.26,2.53,2.53,0,0,1,1,.17,1.62,1.62,0,0,1,.65.49,1.73,1.73,0,0,1,.36.76,5.3,5.3,0,0,1,.09,1.06V21H89.88V18.07a2.13,2.13,0,0,0-.22-1,.84.84,0,0,0-.79-.38,1,1,0,0,0-.84.39,1.85,1.85,0,0,0-.27,1.06V21H85.94Z"/><path class="cls-5" d="M99.17,15.27V21H97.35V20.2a1.48,1.48,0,0,1-.29.38,1.58,1.58,0,0,1-.41.29,2.5,2.5,0,0,1-.5.21,2.08,2.08,0,0,1-.55.07,2.7,2.7,0,0,1-1.14-.23,2.54,2.54,0,0,1-.88-.63,2.68,2.68,0,0,1-.57-.95,3.36,3.36,0,0,1-.21-1.2A3.27,3.27,0,0,1,93,17a2.72,2.72,0,0,1,.57-1,2.82,2.82,0,0,1,.88-.63,2.87,2.87,0,0,1,1.14-.23,2.09,2.09,0,0,1,.55.08,2,2,0,0,1,.5.21,1.43,1.43,0,0,1,.41.31,1.62,1.62,0,0,1,.29.37v-.83ZM96,19.61a1.25,1.25,0,0,0,.56-.12,1.38,1.38,0,0,0,.43-.32,1.42,1.42,0,0,0,.28-.46,1.56,1.56,0,0,0,.1-.57,1.5,1.5,0,0,0-.1-.56,1.53,1.53,0,0,0-.28-.46,1.3,1.3,0,0,0-1-.44,1.31,1.31,0,0,0-.56.12,1.34,1.34,0,0,0-.43.32,1.77,1.77,0,0,0-.28.46,1.74,1.74,0,0,0-.1.56,1.8,1.8,0,0,0,.1.57,1.62,1.62,0,0,0,.28.46,1.51,1.51,0,0,0,.43.32A1.31,1.31,0,0,0,96,19.61Z"/><path class="cls-5" d="M106.74,21a3.31,3.31,0,0,1-.23,1.31,2.17,2.17,0,0,1-.67.86,2.73,2.73,0,0,1-1,.46,4.8,4.8,0,0,1-1.35.16,4.39,4.39,0,0,1-1.36-.18,2.45,2.45,0,0,1-.89-.49,2.23,2.23,0,0,1-.6-.74,2.31,2.31,0,0,1-.24-.9h1.82a1.08,1.08,0,0,0,.35.67,1.33,1.33,0,0,0,.92.29,1.55,1.55,0,0,0,1-.31,1.19,1.19,0,0,0,.38-1v-1a1.87,1.87,0,0,1-.71.65,2.31,2.31,0,0,1-1,.25,3,3,0,0,1-1.14-.22,2.46,2.46,0,0,1-.88-.6,2.72,2.72,0,0,1-.58-.92,3.13,3.13,0,0,1-.21-1.17,3.5,3.5,0,0,1,.2-1.19,2.86,2.86,0,0,1,.56-1,2.94,2.94,0,0,1,.88-.63,2.81,2.81,0,0,1,1.15-.23,2.26,2.26,0,0,1,1,.26,1.62,1.62,0,0,1,.73.71v-.83h1.82Zm-3.2-4.29a1.28,1.28,0,0,0-.56.12,1.24,1.24,0,0,0-.43.32,1.33,1.33,0,0,0-.27.46,1.5,1.5,0,0,0-.1.56,1.56,1.56,0,0,0,.1.57,1.24,1.24,0,0,0,.27.46,1.38,1.38,0,0,0,.43.32,1.28,1.28,0,0,0,.56.12,1.31,1.31,0,0,0,.56-.12,1.38,1.38,0,0,0,.72-.78,1.8,1.8,0,0,0,.1-.57,1.74,1.74,0,0,0-.1-.56,1.53,1.53,0,0,0-.28-.46,1.28,1.28,0,0,0-.44-.32A1.31,1.31,0,0,0,103.54,16.68Z"/><path class="cls-5" d="M109.69,18.58a2,2,0,0,0,.08.5,1,1,0,0,0,.21.4.91.91,0,0,0,.39.27,1.48,1.48,0,0,0,.59.11,1.19,1.19,0,0,0,.72-.19,1,1,0,0,0,.34-.47h1.79a1.89,1.89,0,0,1-.28.76,2.31,2.31,0,0,1-.58.63,2.87,2.87,0,0,1-.86.42,3.82,3.82,0,0,1-1.11.15,3.64,3.64,0,0,1-1.33-.22,2.49,2.49,0,0,1-1-.62,2.79,2.79,0,0,1-.6-1,3.63,3.63,0,0,1-.2-1.22,3.52,3.52,0,0,1,.2-1.18,2.65,2.65,0,0,1,.58-.95,2.77,2.77,0,0,1,1-.65,3.7,3.7,0,0,1,2.54,0,3.31,3.31,0,0,1,.93.57,2.61,2.61,0,0,1,.59.84,2.46,2.46,0,0,1,.21,1c0,.12,0,.24,0,.38a2.79,2.79,0,0,1-.05.46Zm1.23-2.25a1.29,1.29,0,0,0-.88.31,1.13,1.13,0,0,0-.35.9h2.4a1.23,1.23,0,0,0-.32-.89A1.18,1.18,0,0,0,110.92,16.33Z"/><path class="cls-5" d="M64.45,35.26c2-1.95,3.06-3.12,3.06-4.17a1.15,1.15,0,0,0-1.24-1.27,1.9,1.9,0,0,0-1.38.78l-.48-.48a2.56,2.56,0,0,1,2-1,1.81,1.81,0,0,1,1.94,1.92c0,1.22-1.11,2.44-2.65,4.05.36,0,.76-.06,1.09-.06h1.89v.72h-4.2Z"/><path class="cls-5" d="M69.56,32.49c0-2.18.79-3.36,2.09-3.36s2.08,1.18,2.08,3.36-.79,3.39-2.08,3.39S69.56,34.67,69.56,32.49Zm3.35,0c0-1.91-.51-2.68-1.26-2.68s-1.27.77-1.27,2.68.51,2.72,1.27,2.72S72.91,34.39,72.91,32.49Z"/><path class="cls-5" d="M75,35.07h1.48V30.28H75.29v-.54a4.18,4.18,0,0,0,1.38-.48h.64v5.81h1.35v.69H75Z"/><path class="cls-5" d="M80.24,34.67a1.4,1.4,0,0,0,1.07.52c.92,0,1.69-.71,1.72-2.79a2,2,0,0,1-1.53.83c-1.12,0-1.84-.67-1.84-2a2,2,0,0,1,1.91-2.09c1.29,0,2.25,1,2.25,3.13,0,2.61-1.19,3.62-2.48,3.62a2.08,2.08,0,0,1-1.57-.68ZM83,31.73c-.11-1.26-.61-1.93-1.44-1.93-.63,0-1.13.57-1.13,1.42s.4,1.38,1.21,1.38A1.74,1.74,0,0,0,83,31.73Z"/><path class="cls-5" d="M89.87,29a2.47,2.47,0,0,1,1.82.83l-.48.54a1.76,1.76,0,0,0-1.33-.63c-1.28,0-2.12,1-2.12,2.71s.8,2.74,2.08,2.74a2,2,0,0,0,1.53-.75l.47.52a2.54,2.54,0,0,1-2,1c-1.68,0-2.93-1.28-2.93-3.46S88.15,29,89.87,29Z"/><path class="cls-5" d="M93,28.5h.84v6.32c0,.27.11.37.23.37l.18,0,.12.63a1.19,1.19,0,0,1-.48.08c-.64,0-.89-.4-.89-1.12Z"/><path class="cls-5" d="M97.52,30.68a2.37,2.37,0,0,1,2.29,2.61,2.31,2.31,0,1,1-4.59,0A2.37,2.37,0,0,1,97.52,30.68Zm0,4.51c.85,0,1.42-.77,1.42-1.9s-.57-1.91-1.42-1.91-1.43.77-1.43,1.91S96.67,35.19,97.52,35.19Z"/><path class="cls-5" d="M101.05,30.81h.84v3c0,.93.28,1.33.93,1.33s.87-.26,1.34-.84V30.81H105v4.95h-.69l-.07-.77h0a2.09,2.09,0,0,1-1.63.89c-1,0-1.52-.67-1.52-1.93Z"/><path class="cls-5" d="M108.46,30.68a2.09,2.09,0,0,1,1.39.57l0-.84V28.5h.84v7.26H110l-.07-.58h0a2.23,2.23,0,0,1-1.5.7c-1.24,0-2-.94-2-2.59A2.35,2.35,0,0,1,108.46,30.68Zm.08,4.5a1.71,1.71,0,0,0,1.27-.68V31.91a1.73,1.73,0,0,0-1.21-.52c-.79,0-1.42.76-1.42,1.89S107.68,35.18,108.54,35.18Z"/><path class="cls-5" d="M114.44,29.07h3.85v.72h-3v2.1h2.52v.72H115.3V35h3.09v.72h-4Z"/><path class="cls-5" d="M120.64,33.17l-1.5-2.36h.91l.66,1.09c.16.26.32.55.49.82h0c.14-.27.3-.56.45-.82l.6-1.09h.88l-1.5,2.45,1.61,2.5h-.91l-.72-1.15c-.17-.3-.36-.6-.54-.89h0c-.17.29-.34.58-.5.89l-.67,1.15H119Z"/><path class="cls-5" d="M126.11,30.68a2,2,0,0,1,1.44.59l-.41.54a1.52,1.52,0,0,0-1-.43c-.9,0-1.55.77-1.55,1.91s.62,1.9,1.53,1.9a1.79,1.79,0,0,0,1.16-.5l.38.55a2.45,2.45,0,0,1-1.62.64,2.33,2.33,0,0,1-2.32-2.59A2.4,2.4,0,0,1,126.11,30.68Z"/><path class="cls-5" d="M130.38,30.68c1.26,0,2,.91,2,2.33a3.13,3.13,0,0,1,0,.46H129a1.65,1.65,0,0,0,1.65,1.74,2.2,2.2,0,0,0,1.24-.39l.29.55a2.87,2.87,0,0,1-1.63.51,2.37,2.37,0,0,1-2.37-2.59A2.39,2.39,0,0,1,130.38,30.68Zm1.24,2.24c0-1-.44-1.57-1.22-1.57A1.56,1.56,0,0,0,129,32.92Z"/><path class="cls-5" d="M133.58,28.5h.84v6.32c0,.27.11.37.23.37a.72.72,0,0,0,.19,0l.11.63a1.12,1.12,0,0,1-.48.08c-.63,0-.89-.4-.89-1.12Z"/><path class="cls-5" d="M136.19,28.5H137v6.32c0,.27.11.37.24.37l.18,0,.11.63a1.12,1.12,0,0,1-.48.08c-.63,0-.88-.4-.88-1.12Z"/><path class="cls-5" d="M140.64,30.68c1.26,0,2,.91,2,2.33a3.13,3.13,0,0,1,0,.46h-3.35a1.65,1.65,0,0,0,1.65,1.74,2.2,2.2,0,0,0,1.24-.39l.29.55a2.87,2.87,0,0,1-1.63.51,2.37,2.37,0,0,1-2.37-2.59A2.39,2.39,0,0,1,140.64,30.68Zm1.24,2.24c0-1-.44-1.57-1.22-1.57a1.56,1.56,0,0,0-1.43,1.57Z"/><path class="cls-5" d="M143.84,30.81h.7l.07.71h0a2.34,2.34,0,0,1,1.66-.84c1,0,1.51.68,1.51,1.94v3.14H147v-3c0-.92-.28-1.32-.93-1.32a1.89,1.89,0,0,0-1.36.76v3.59h-.84Z"/><path class="cls-5" d="M151.44,30.68a2.09,2.09,0,0,1,1.45.59l-.42.54a1.5,1.5,0,0,0-1-.43c-.9,0-1.55.77-1.55,1.91s.62,1.9,1.53,1.9a1.77,1.77,0,0,0,1.16-.5l.38.55a2.44,2.44,0,0,1-1.61.64,2.32,2.32,0,0,1-2.32-2.59A2.4,2.4,0,0,1,151.44,30.68Z"/><path class="cls-5" d="M155.71,30.68c1.27,0,2,.91,2,2.33a3.13,3.13,0,0,1,0,.46h-3.34A1.64,1.64,0,0,0,156,35.21a2.17,2.17,0,0,0,1.23-.39l.3.55a2.92,2.92,0,0,1-1.63.51,2.37,2.37,0,0,1-2.38-2.59A2.39,2.39,0,0,1,155.71,30.68ZM157,32.92c0-1-.45-1.57-1.22-1.57a1.54,1.54,0,0,0-1.43,1.57Z"/><path class="cls-5" d="M64.93,39.82H67c1.48,0,2.46.5,2.46,2s-1,2.07-2.46,2.07h-1.2v2.65h-.86Zm1.95,3.35c1.17,0,1.73-.43,1.73-1.38s-.58-1.28-1.73-1.28H65.79v2.66Z"/><path class="cls-5" d="M73.07,43.37c0-.63-.22-1.24-1-1.24a2.64,2.64,0,0,0-1.48.53l-.34-.58a3.67,3.67,0,0,1,2-.65c1.21,0,1.72.81,1.72,2v3h-.69l-.07-.59h0a2.68,2.68,0,0,1-1.64.71A1.35,1.35,0,0,1,70,45.23C70,44.15,71,43.6,73.07,43.37ZM71.71,46a2,2,0,0,0,1.36-.66V43.92c-1.66.2-2.22.61-2.22,1.24A.75.75,0,0,0,71.71,46Z"/><path class="cls-5" d="M75.49,41.56h.69l.07.89h0a1.71,1.71,0,0,1,1.41-1,1.12,1.12,0,0,1,.53.11l-.16.73a1.46,1.46,0,0,0-.48-.08c-.42,0-.92.3-1.26,1.14v3.18h-.83Z"/><path class="cls-5" d="M79.17,42.24h-.74v-.63l.78,0,.1-1.39H80v1.39h1.34v.68H80V45c0,.61.2,1,.77,1a1.83,1.83,0,0,0,.56-.13l.16.63a3.07,3.07,0,0,1-.91.18c-1.07,0-1.42-.67-1.42-1.65Z"/><path class="cls-5" d="M82.47,41.56h.7l.07.71h0a2.34,2.34,0,0,1,1.66-.84c1,0,1.51.68,1.51,1.94v3.14H85.6v-3c0-.92-.28-1.32-.94-1.32-.51,0-.85.26-1.35.76v3.59h-.84Z"/><path class="cls-5" d="M89.91,41.43c1.26,0,2,.91,2,2.33a2.17,2.17,0,0,1,0,.46H88.51A1.64,1.64,0,0,0,90.16,46a2.17,2.17,0,0,0,1.23-.39l.3.55a2.92,2.92,0,0,1-1.63.51A2.36,2.36,0,0,1,87.69,44,2.39,2.39,0,0,1,89.91,41.43Zm1.24,2.24c0-1-.45-1.57-1.22-1.57a1.54,1.54,0,0,0-1.43,1.57Z"/><path class="cls-5" d="M93.11,41.56h.69l.08.89h0a1.68,1.68,0,0,1,1.4-1,1.09,1.09,0,0,1,.53.11l-.16.73a1.42,1.42,0,0,0-.48-.08c-.42,0-.92.3-1.25,1.14v3.18h-.84Z"/><path class="cls-5" d="M98.79,45.05a2.6,2.6,0,0,0,1.85.84c.87,0,1.39-.44,1.39-1.09s-.49-.9-1.12-1.18l-1-.42a1.79,1.79,0,0,1,.76-3.5,2.75,2.75,0,0,1,2,.83l-.45.55a2.16,2.16,0,0,0-1.52-.64c-.76,0-1.25.38-1.25,1s.58.89,1.1,1.11l1,.41a1.87,1.87,0,0,1,1.38,1.79,2,2,0,0,1-2.28,1.9,3.23,3.23,0,0,1-2.34-1Z"/><path class="cls-5" d="M106,41.43a2.37,2.37,0,0,1,2.3,2.61,2.31,2.31,0,1,1-4.59,0A2.37,2.37,0,0,1,106,41.43Zm0,4.51c.86,0,1.43-.77,1.43-1.9s-.57-1.91-1.43-1.91-1.42.77-1.42,1.91S105.19,45.94,106,45.94Z"/><path class="cls-5" d="M109.56,41.56h.85v3c0,.93.27,1.33.93,1.33.51,0,.86-.26,1.33-.84V41.56h.84v4.95h-.7l-.07-.77h0a2.09,2.09,0,0,1-1.63.89c-1,0-1.52-.67-1.52-1.93Z"/><path class="cls-5" d="M115.33,42.24h-.74v-.63l.78,0,.1-1.39h.7v1.39h1.34v.68h-1.34V45c0,.61.2,1,.77,1a1.9,1.9,0,0,0,.56-.13l.16.63a3.13,3.13,0,0,1-.92.18c-1.06,0-1.41-.67-1.41-1.65Z"/><path class="cls-5" d="M118.63,39.25h.84v2l0,1a2.33,2.33,0,0,1,1.65-.82c1,0,1.51.68,1.51,1.94v3.14h-.84v-3c0-.92-.29-1.32-.94-1.32a1.86,1.86,0,0,0-1.35.76v3.59h-.84Z"/><path class="cls-5" d="M129.35,44.47h-2.44l-.64,2h-.87l2.27-6.69h1l2.27,6.69H130Zm-.22-.68-.31-1c-.24-.75-.45-1.48-.66-2.25h0c-.22.77-.43,1.5-.67,2.25l-.32,1Z"/><path class="cls-5" d="M131.73,41.56h.69l.07.71h0a2.19,2.19,0,0,1,1.54-.84,1.32,1.32,0,0,1,1.37,1,2.35,2.35,0,0,1,1.63-1c1,0,1.51.68,1.51,1.94v3.14h-.84v-3c0-.92-.29-1.32-.92-1.32a1.82,1.82,0,0,0-1.24.76v3.59h-.84v-3c0-.92-.29-1.32-.92-1.32a1.85,1.85,0,0,0-1.25.76v3.59h-.83Z"/><path class="cls-5" d="M142,41.43c1.26,0,2,.91,2,2.33a2.13,2.13,0,0,1,0,.46h-3.34A1.65,1.65,0,0,0,142.29,46a2.22,2.22,0,0,0,1.24-.39l.29.55a2.92,2.92,0,0,1-1.63.51A2.37,2.37,0,0,1,139.82,44,2.39,2.39,0,0,1,142,41.43Zm1.24,2.24c0-1-.45-1.57-1.22-1.57a1.55,1.55,0,0,0-1.43,1.57Z"/><path class="cls-5" d="M145.24,41.56h.7l.07.89h0a1.68,1.68,0,0,1,1.4-1,1.09,1.09,0,0,1,.53.11l-.16.73a1.38,1.38,0,0,0-.48-.08c-.42,0-.92.3-1.25,1.14v3.18h-.84Z"/><path class="cls-5" d="M148.63,40a.58.58,0,0,1,1.16,0,.58.58,0,0,1-1.16,0Zm.15,1.56h.84v4.95h-.84Z"/><path class="cls-5" d="M153.31,41.43a2.09,2.09,0,0,1,1.45.59l-.42.54a1.52,1.52,0,0,0-1-.43c-.9,0-1.55.77-1.55,1.91s.62,1.9,1.53,1.9a1.79,1.79,0,0,0,1.16-.5l.38.55a2.44,2.44,0,0,1-1.61.64A2.33,2.33,0,0,1,150.92,44,2.4,2.4,0,0,1,153.31,41.43Z"/><path class="cls-5" d="M158.64,43.37c0-.63-.21-1.24-1-1.24a2.64,2.64,0,0,0-1.48.53l-.33-.58a3.64,3.64,0,0,1,1.95-.65c1.21,0,1.72.81,1.72,2v3h-.69l-.08-.59h0a2.68,2.68,0,0,1-1.64.71,1.35,1.35,0,0,1-1.46-1.4C155.59,44.15,156.53,43.6,158.64,43.37ZM157.29,46a2,2,0,0,0,1.35-.66V43.92c-1.66.2-2.22.61-2.22,1.24S156.8,46,157.29,46Z"/></svg>