<?xml version="1.0" encoding="utf-8"?>
<!-- Generator: Adobe Illustrator 22.1.0, SVG Export Plug-In . SVG Version: 6.00 Build 0)  -->
<svg version="1.1" id="Layer_1" xmlns="http://www.w3.org/2000/svg" xmlns:xlink="http://www.w3.org/1999/xlink" x="0px" y="0px"
	 viewBox="0 0 172.4 57.6" style="enable-background:new 0 0 172.4 57.6;" xml:space="preserve">
<style type="text/css">
	.st0{fill:#333D47;}
	.st1{fill:#92DEFF;}
	.st2{fill:#6778F2;}
	.st3{fill:#3B69F2;}
	.st4{fill:#FFFFFF;}
</style>
<title>South America Partner of the Year</title>
<path class="st0" d="M172.4,57.7h-143V0.8h137.9c2.8,0,5.1,2.3,5.1,5.1V57.7z"/>
<path class="st1" d="M5.8,1.3C28.4-7.1,79,27,45,42.7c-12.9,5.9-29.8,6.4-38.6-6.2C0.8,28.4-4.4,5.5,5.8,1.3z"/>
<path class="st2" d="M32.8,0.9c-3-0.5-6.1-0.3-9,0.4c-0.4,0.1-0.9,0.2-1.3,0.4c14.8,4,30.2,14.8,33.1,25.5l0.6-0.8
	c0.9-1.2,1.6-2.4,2.2-3.7C61.9,13.6,41.4,2.2,32.8,0.9z"/>
<path class="st3" d="M23.8,1.3C16.1,3.4,10,9.6,6.7,17.6C-5.2,47,42.8,44.4,56.3,26.5C53.9,15.9,38.5,5,23.8,1.3z"/>
<path class="st4" d="M35.8,15.3c-1.8,0-3.5,0.7-4.7,2c-2.3-2.6-6.3-2.8-8.9-0.5c-1.3,1.2-2.1,2.9-2.1,4.7v7.7h3.4v-7.7
	c0-1.7,1.3-3,3-3s3,1.3,3,3v7.7h3.3v-7.7c0-1.7,1.3-3,3-3s3,1.3,3,3v7.7h3.3v-7.7C42.1,18.1,39.3,15.3,35.8,15.3z"/>
<path class="st4" d="M18.7,10.5c1.3,0,2.4,1.1,2.4,2.4s-1.1,2.4-2.4,2.4c-1.3,0-2.4-1.1-2.4-2.4c0,0,0,0,0,0
	C16.3,11.6,17.4,10.5,18.7,10.5z"/>
<path class="st4" d="M64.6,13.4c0-0.7,0.6-1.2,1.2-1.1c0.1,0,0.3,0,0.4,0.1c0.1,0.1,0.3,0.1,0.4,0.2c0.1,0.1,0.2,0.2,0.3,0.4
	c0.1,0.3,0.1,0.6,0,0.9c-0.1,0.1-0.1,0.3-0.3,0.4c-0.1,0.1-0.2,0.2-0.4,0.3c-0.6,0.3-1.3,0-1.5-0.6c0,0,0,0,0,0
	C64.6,13.7,64.5,13.5,64.6,13.4z M64.8,15.3h1.8V21h-1.8V15.3z"/>
<path class="st4" d="M77.1,21h-1.9v-5.1L73.4,21h-1.4l-1.8-5.2V21h-1.9v-8.3h2.2l2.2,5.8l2.2-5.8h2.2V21z"/>
<path class="st4" d="M84.4,15.3V21h-1.8v-0.8c-0.1,0.1-0.2,0.3-0.3,0.4c-0.1,0.1-0.3,0.2-0.4,0.3c-0.2,0.1-0.3,0.2-0.5,0.2
	c-0.2,0-0.4,0.1-0.6,0.1c-0.4,0-0.8-0.1-1.1-0.2c-0.3-0.1-0.6-0.4-0.9-0.6c-0.3-0.3-0.4-0.6-0.6-1C78.1,19,78,18.5,78,18.1
	c0-0.4,0.1-0.8,0.2-1.1c0.1-0.4,0.3-0.7,0.6-1c0.2-0.3,0.5-0.5,0.9-0.6c0.4-0.2,0.7-0.2,1.1-0.2c0.2,0,0.4,0,0.6,0.1
	c0.2,0,0.3,0.1,0.5,0.2c0.2,0.1,0.3,0.2,0.4,0.3c0.1,0.1,0.2,0.2,0.3,0.4v-0.8L84.4,15.3z M81.2,19.6c0.2,0,0.4,0,0.6-0.1
	c0.2-0.1,0.3-0.2,0.4-0.3c0.1-0.1,0.2-0.3,0.3-0.5c0.1-0.2,0.1-0.4,0.1-0.6c0-0.2,0-0.4-0.1-0.6c-0.1-0.2-0.2-0.3-0.3-0.5
	c-0.1-0.1-0.3-0.2-0.4-0.3c-0.2-0.1-0.4-0.1-0.6-0.1c-0.2,0-0.4,0-0.6,0.1c-0.2,0.1-0.3,0.2-0.4,0.3c-0.1,0.1-0.2,0.3-0.3,0.5
	c-0.1,0.2-0.1,0.4-0.1,0.6c0,0.2,0,0.4,0.1,0.6c0.1,0.2,0.2,0.3,0.3,0.5c0.1,0.1,0.3,0.2,0.4,0.3C80.8,19.6,81,19.6,81.2,19.6z"/>
<path class="st4" d="M85.9,15.3h1.8v0.8c0.2-0.3,0.4-0.6,0.7-0.7c0.4-0.2,0.8-0.3,1.2-0.3c0.3,0,0.7,0,1,0.2
	c0.3,0.1,0.5,0.3,0.7,0.5c0.2,0.2,0.3,0.5,0.4,0.8c0.1,0.3,0.1,0.7,0.1,1.1V21h-1.9v-2.9c0-0.3-0.1-0.7-0.2-1
	c-0.2-0.3-0.5-0.4-0.8-0.4c-0.3,0-0.6,0.1-0.8,0.4c-0.2,0.3-0.3,0.7-0.3,1.1V21h-1.8V15.3z"/>
<path class="st4" d="M99.2,15.3V21h-1.8v-0.8c-0.1,0.1-0.2,0.3-0.3,0.4c-0.1,0.1-0.3,0.2-0.4,0.3c-0.2,0.1-0.3,0.2-0.5,0.2
	c-0.2,0-0.4,0.1-0.6,0.1c-0.4,0-0.8-0.1-1.1-0.2c-0.3-0.1-0.6-0.4-0.9-0.6c-0.3-0.3-0.4-0.6-0.6-1c-0.1-0.4-0.2-0.8-0.2-1.2
	c0-0.4,0.1-0.8,0.2-1.1c0.1-0.4,0.3-0.7,0.6-1c0.2-0.3,0.5-0.5,0.9-0.6c0.4-0.2,0.7-0.2,1.1-0.2c0.2,0,0.4,0,0.6,0.1
	c0.2,0,0.3,0.1,0.5,0.2c0.2,0.1,0.3,0.2,0.4,0.3c0.1,0.1,0.2,0.2,0.3,0.4v-0.8L99.2,15.3z M96,19.6c0.2,0,0.4,0,0.6-0.1
	c0.2-0.1,0.3-0.2,0.4-0.3c0.1-0.1,0.2-0.3,0.3-0.5c0.1-0.2,0.1-0.4,0.1-0.6c0-0.2,0-0.4-0.1-0.6c-0.1-0.2-0.2-0.3-0.3-0.5
	c-0.1-0.1-0.3-0.2-0.4-0.3c-0.2-0.1-0.4-0.1-0.6-0.1c-0.2,0-0.4,0-0.6,0.1c-0.2,0.1-0.3,0.2-0.4,0.3c-0.1,0.1-0.2,0.3-0.3,0.5
	c-0.1,0.2-0.1,0.4-0.1,0.6c0,0.2,0,0.4,0.1,0.6c0.1,0.2,0.2,0.3,0.3,0.5c0.1,0.1,0.3,0.2,0.4,0.3C95.6,19.6,95.8,19.6,96,19.6z"/>
<path class="st4" d="M106.7,21c0,0.4-0.1,0.9-0.2,1.3c-0.1,0.3-0.4,0.6-0.7,0.9c-0.3,0.2-0.6,0.4-1,0.5c-0.4,0.1-0.9,0.2-1.4,0.2
	c-0.5,0-0.9,0-1.3-0.2c-0.3-0.1-0.6-0.3-0.9-0.5c-0.3-0.2-0.5-0.5-0.6-0.7c-0.1-0.3-0.2-0.6-0.2-0.9h1.8c0,0.3,0.2,0.5,0.3,0.7
	c0.3,0.2,0.6,0.3,0.9,0.3c0.4,0,0.7-0.1,1-0.3c0.3-0.3,0.4-0.6,0.4-1v-1c-0.2,0.3-0.4,0.5-0.7,0.6c-0.3,0.2-0.7,0.2-1,0.3
	c-0.4,0-0.8-0.1-1.1-0.2c-0.3-0.1-0.6-0.3-0.9-0.6c-0.3-0.3-0.5-0.6-0.6-0.9c-0.1-0.4-0.2-0.8-0.2-1.2c0-0.4,0.1-0.8,0.2-1.2
	c0.1-0.4,0.3-0.7,0.6-1c0.3-0.3,0.6-0.5,0.9-0.6c0.4-0.2,0.8-0.2,1.2-0.2c0.3,0,0.7,0.1,1,0.3c0.3,0.2,0.6,0.4,0.7,0.7v-0.8h1.8
	L106.7,21z M103.5,16.7c-0.2,0-0.4,0-0.6,0.1c-0.2,0.1-0.3,0.2-0.4,0.3c-0.1,0.1-0.2,0.3-0.3,0.5c-0.1,0.2-0.1,0.4-0.1,0.6
	c0,0.2,0,0.4,0.1,0.6c0.1,0.2,0.1,0.3,0.3,0.5c0.1,0.1,0.3,0.2,0.4,0.3c0.2,0.1,0.4,0.1,0.6,0.1c0.2,0,0.4,0,0.6-0.1
	c0.3-0.2,0.6-0.4,0.7-0.8c0.1-0.2,0.1-0.4,0.1-0.6c0-0.2,0-0.4-0.1-0.6c-0.1-0.2-0.2-0.3-0.3-0.5c-0.1-0.1-0.3-0.2-0.4-0.3
	C103.9,16.7,103.7,16.7,103.5,16.7L103.5,16.7z"/>
<path class="st4" d="M109.7,18.6c0,0.2,0,0.3,0.1,0.5c0,0.1,0.1,0.3,0.2,0.4c0.1,0.1,0.2,0.2,0.4,0.3c0.2,0.1,0.4,0.1,0.6,0.1
	c0.3,0,0.5-0.1,0.7-0.2c0.2-0.1,0.3-0.3,0.3-0.5h1.8c0,0.3-0.1,0.5-0.3,0.8c-0.2,0.2-0.4,0.5-0.6,0.6c-0.3,0.2-0.5,0.3-0.8,0.4
	c-0.4,0.1-0.7,0.2-1.1,0.1c-0.5,0-0.9-0.1-1.3-0.2c-0.4-0.1-0.7-0.3-1-0.6c-0.3-0.3-0.5-0.6-0.6-1c-0.1-0.4-0.2-0.8-0.2-1.2
	c0-0.4,0.1-0.8,0.2-1.2c0.1-0.4,0.3-0.7,0.6-0.9c0.3-0.3,0.6-0.5,1-0.6c0.8-0.3,1.7-0.3,2.5,0c0.3,0.1,0.7,0.3,0.9,0.6
	c0.5,0.5,0.8,1.1,0.8,1.8c0,0.1,0,0.2,0,0.4c0,0.2,0,0.3-0.1,0.5L109.7,18.6z M110.9,16.3c-0.3,0-0.6,0.1-0.9,0.3
	c-0.2,0.2-0.4,0.6-0.3,0.9h2.4c0-0.3-0.1-0.6-0.3-0.9C111.5,16.4,111.2,16.3,110.9,16.3z"/>
<g>
	<path class="st4" d="M63.7,35.8v-0.5l0.7-0.7c1.7-1.6,2.4-2.4,2.4-3.4c0-0.7-0.3-1.3-1.3-1.3c-0.6,0-1.1,0.3-1.4,0.5l-0.3-0.6
		c0.5-0.4,1.1-0.7,1.8-0.7c1.4,0,2,1,2,1.9c0,1.2-0.9,2.2-2.2,3.5l-0.5,0.5v0h2.9v0.7H63.7z"/>
	<path class="st4" d="M73.2,32.5c0,2.2-0.8,3.4-2.3,3.4c-1.3,0-2.1-1.2-2.1-3.3c0-2.2,0.9-3.4,2.3-3.4
		C72.4,29.2,73.2,30.4,73.2,32.5z M69.6,32.6c0,1.7,0.5,2.6,1.3,2.6c0.9,0,1.3-1,1.3-2.7c0-1.6-0.4-2.6-1.3-2.6
		C70.2,29.9,69.6,30.8,69.6,32.6z"/>
	<path class="st4" d="M75.9,30.1L75.9,30.1l-1.1,0.6l-0.2-0.7l1.4-0.8h0.7v6.5h-0.8V30.1z"/>
	<path class="st4" d="M83.4,29.3v0.6l-2.8,5.9h-0.9l2.8-5.7v0h-3.2v-0.7H83.4z"/>
	<path class="st4" d="M86.6,34.7c0.4,0.2,1,0.4,1.6,0.4c0.9,0,1.4-0.5,1.4-1.1c0-0.6-0.4-1-1.3-1.3c-1.1-0.4-1.8-1-1.8-1.9
		c0-1.1,0.9-1.8,2.2-1.8c0.7,0,1.2,0.2,1.5,0.3L90,30c-0.2-0.1-0.7-0.3-1.3-0.3c-0.9,0-1.3,0.5-1.3,1c0,0.6,0.4,0.9,1.3,1.3
		c1.1,0.4,1.7,1,1.7,2c0,1-0.8,1.9-2.4,1.9c-0.6,0-1.4-0.2-1.7-0.4L86.6,34.7z"/>
	<path class="st4" d="M96.1,33.3c0,1.8-1.2,2.6-2.4,2.6c-1.3,0-2.3-1-2.3-2.5c0-1.6,1.1-2.6,2.4-2.6C95.2,30.9,96.1,31.9,96.1,33.3z
		 M92.3,33.4c0,1.1,0.6,1.9,1.5,1.9c0.8,0,1.5-0.8,1.5-1.9c0-0.8-0.4-1.9-1.4-1.9C92.7,31.5,92.3,32.5,92.3,33.4z"/>
	<path class="st4" d="M101.3,34.5c0,0.5,0,0.9,0,1.3h-0.8l0-0.8h0c-0.2,0.4-0.7,0.9-1.6,0.9c-0.8,0-1.7-0.4-1.7-2.1V31h0.9v2.7
		c0,0.9,0.3,1.5,1.1,1.5c0.6,0,1-0.4,1.2-0.8c0-0.1,0.1-0.3,0.1-0.5v-3h0.9V34.5z"/>
	<path class="st4" d="M103.8,29.6V31h1.3v0.7h-1.3v2.6c0,0.6,0.2,0.9,0.7,0.9c0.2,0,0.4,0,0.5-0.1l0,0.7c-0.2,0.1-0.4,0.1-0.8,0.1
		c-0.4,0-0.7-0.1-0.9-0.4c-0.3-0.3-0.3-0.7-0.3-1.3v-2.6h-0.8V31h0.8v-1.2L103.8,29.6z"/>
	<path class="st4" d="M106.1,28.7h0.9v3h0c0.1-0.3,0.4-0.5,0.6-0.6c0.3-0.1,0.6-0.3,0.9-0.3c0.6,0,1.7,0.4,1.7,2.1v2.9h-0.9V33
		c0-0.8-0.3-1.4-1.1-1.4c-0.6,0-1,0.4-1.2,0.9c0,0.1-0.1,0.3-0.1,0.4v2.9h-0.9V28.7z"/>
	<path class="st4" d="M114.9,33.7l-0.7,2.1h-0.9l2.3-6.7h1l2.3,6.7H118l-0.7-2.1H114.9z M117.1,33l-0.7-1.9
		c-0.2-0.4-0.3-0.8-0.4-1.2h0c-0.1,0.4-0.2,0.8-0.3,1.2l-0.7,1.9H117.1z"/>
	<path class="st4" d="M119.9,32.3c0-0.5,0-0.9,0-1.3h0.8l0,0.8h0c0.3-0.5,0.7-0.9,1.5-0.9c0.7,0,1.2,0.4,1.4,1h0
		c0.2-0.3,0.3-0.5,0.5-0.6c0.3-0.2,0.6-0.3,1.1-0.3c0.6,0,1.6,0.4,1.6,2.1v2.8H126v-2.7c0-0.9-0.3-1.5-1-1.5c-0.5,0-0.9,0.4-1,0.8
		c0,0.1-0.1,0.3-0.1,0.4v3H123v-2.9c0-0.8-0.3-1.3-1-1.3c-0.5,0-0.9,0.4-1.1,0.9c0,0.1-0.1,0.3-0.1,0.4v2.9h-0.9V32.3z"/>
	<path class="st4" d="M128.8,33.5c0,1.2,0.8,1.7,1.7,1.7c0.6,0,1-0.1,1.3-0.3l0.1,0.6c-0.3,0.1-0.8,0.3-1.6,0.3
		c-1.5,0-2.4-1-2.4-2.4c0-1.5,0.9-2.6,2.3-2.6c1.6,0,2,1.4,2,2.3c0,0.2,0,0.3,0,0.4H128.8z M131.4,32.9c0-0.6-0.2-1.4-1.2-1.4
		c-0.9,0-1.3,0.8-1.3,1.4H131.4z"/>
	<path class="st4" d="M133.3,32.5c0-0.6,0-1.1,0-1.5h0.8l0,0.9h0c0.2-0.6,0.7-1.1,1.3-1.1c0.1,0,0.2,0,0.3,0v0.8c-0.1,0-0.2,0-0.3,0
		c-0.6,0-1.1,0.5-1.2,1.1c0,0.1,0,0.3,0,0.4v2.6h-0.9V32.5z"/>
	<path class="st4" d="M137.6,29.6c0,0.3-0.2,0.5-0.6,0.5c-0.3,0-0.5-0.2-0.5-0.5c0-0.3,0.2-0.5,0.5-0.5
		C137.4,29.1,137.6,29.3,137.6,29.6z M136.7,35.8V31h0.9v4.8H136.7z"/>
	<path class="st4" d="M142.5,35.6c-0.2,0.1-0.7,0.3-1.4,0.3c-1.5,0-2.4-1-2.4-2.5c0-1.5,1-2.6,2.6-2.6c0.5,0,1,0.1,1.2,0.3l-0.2,0.7
		c-0.2-0.1-0.5-0.2-1-0.2c-1.1,0-1.7,0.8-1.7,1.8c0,1.1,0.7,1.8,1.7,1.8c0.5,0,0.8-0.1,1.1-0.2L142.5,35.6z"/>
	<path class="st4" d="M146.2,35.8l-0.1-0.6h0c-0.3,0.4-0.8,0.7-1.5,0.7c-1,0-1.5-0.7-1.5-1.4c0-1.2,1-1.8,2.9-1.8v-0.1
		c0-0.4-0.1-1.1-1.1-1.1c-0.5,0-0.9,0.1-1.3,0.4l-0.2-0.6c0.4-0.3,1-0.4,1.6-0.4c1.5,0,1.8,1,1.8,2v1.8c0,0.4,0,0.8,0.1,1.2H146.2z
		 M146.1,33.3c-1,0-2,0.2-2,1.1c0,0.6,0.4,0.8,0.8,0.8c0.6,0,1-0.4,1.2-0.8c0-0.1,0-0.2,0-0.3V33.3z"/>
	<path class="st4" d="M64,40.1c0.4-0.1,1-0.1,1.7-0.1c0.9,0,1.5,0.2,1.9,0.6c0.4,0.3,0.6,0.8,0.6,1.4c0,0.6-0.2,1.1-0.5,1.4
		c-0.5,0.5-1.2,0.7-2.1,0.7c-0.3,0-0.5,0-0.7-0.1v2.7H64V40.1z M64.9,43.4c0.2,0.1,0.4,0.1,0.7,0.1c1,0,1.7-0.5,1.7-1.4
		c0-0.9-0.6-1.3-1.6-1.3c-0.4,0-0.7,0-0.8,0.1V43.4z"/>
	<path class="st4" d="M71.8,46.8l-0.1-0.6h0c-0.3,0.4-0.8,0.7-1.5,0.7c-1,0-1.5-0.7-1.5-1.4c0-1.2,1-1.8,2.9-1.8v-0.1
		c0-0.4-0.1-1.1-1.1-1.1c-0.5,0-0.9,0.1-1.3,0.4l-0.2-0.6c0.4-0.3,1-0.4,1.6-0.4c1.5,0,1.8,1,1.8,2v1.8c0,0.4,0,0.8,0.1,1.2H71.8z
		 M71.7,44.3c-1,0-2,0.2-2,1.1c0,0.6,0.4,0.8,0.8,0.8c0.6,0,1-0.4,1.2-0.8c0-0.1,0-0.2,0-0.3V44.3z"/>
	<path class="st4" d="M74.1,43.5c0-0.6,0-1.1,0-1.5h0.8l0,0.9h0c0.2-0.6,0.7-1.1,1.3-1.1c0.1,0,0.2,0,0.3,0v0.8c-0.1,0-0.2,0-0.3,0
		c-0.6,0-1.1,0.5-1.2,1.1c0,0.1,0,0.3,0,0.4v2.6h-0.9V43.5z"/>
	<path class="st4" d="M78.7,40.6V42H80v0.7h-1.3v2.6c0,0.6,0.2,0.9,0.7,0.9c0.2,0,0.4,0,0.5-0.1l0,0.7c-0.2,0.1-0.4,0.1-0.8,0.1
		c-0.4,0-0.7-0.1-0.9-0.4c-0.3-0.3-0.3-0.7-0.3-1.3v-2.6h-0.8V42h0.8v-1.2L78.7,40.6z"/>
	<path class="st4" d="M81.1,43.3c0-0.5,0-0.9,0-1.3h0.8l0.1,0.8h0c0.2-0.5,0.8-0.9,1.6-0.9c0.7,0,1.7,0.4,1.7,2.1v2.9h-0.9V44
		c0-0.8-0.3-1.4-1.1-1.4c-0.6,0-1,0.4-1.2,0.9c0,0.1-0.1,0.3-0.1,0.4v2.9h-0.9V43.3z"/>
	<path class="st4" d="M87.2,44.5c0,1.2,0.8,1.7,1.7,1.7c0.6,0,1-0.1,1.3-0.3l0.1,0.6c-0.3,0.1-0.8,0.3-1.6,0.3c-1.5,0-2.4-1-2.4-2.4
		c0-1.5,0.9-2.6,2.3-2.6c1.6,0,2,1.4,2,2.3c0,0.2,0,0.3,0,0.4H87.2z M89.8,43.9c0-0.6-0.2-1.4-1.2-1.4c-0.9,0-1.3,0.8-1.3,1.4H89.8z
		"/>
	<path class="st4" d="M91.9,43.5c0-0.6,0-1.1,0-1.5h0.8l0,0.9h0c0.2-0.6,0.7-1.1,1.3-1.1c0.1,0,0.2,0,0.3,0v0.8c-0.1,0-0.2,0-0.3,0
		c-0.6,0-1.1,0.5-1.2,1.1c0,0.1,0,0.3,0,0.4v2.6h-0.9V43.5z"/>
	<path class="st4" d="M101.8,44.3c0,1.8-1.2,2.6-2.4,2.6c-1.3,0-2.3-1-2.3-2.5c0-1.6,1.1-2.6,2.4-2.6
		C100.9,41.9,101.8,42.9,101.8,44.3z M98,44.4c0,1.1,0.6,1.9,1.5,1.9c0.8,0,1.5-0.8,1.5-1.9c0-0.8-0.4-1.9-1.4-1.9
		C98.4,42.5,98,43.5,98,44.4z"/>
	<path class="st4" d="M103.1,46.8v-4.2h-0.7V42h0.7v-0.2c0-0.7,0.2-1.3,0.6-1.7c0.3-0.3,0.8-0.5,1.2-0.5c0.3,0,0.6,0.1,0.8,0.1
		l-0.1,0.7c-0.1-0.1-0.3-0.1-0.6-0.1c-0.8,0-0.9,0.7-0.9,1.4V42h1.2v0.7H104v4.2H103.1z"/>
	<path class="st4" d="M109.3,40.6V42h1.3v0.7h-1.3v2.6c0,0.6,0.2,0.9,0.7,0.9c0.2,0,0.4,0,0.5-0.1l0,0.7c-0.2,0.1-0.4,0.1-0.8,0.1
		c-0.4,0-0.7-0.1-0.9-0.4c-0.3-0.3-0.3-0.7-0.3-1.3v-2.6h-0.8V42h0.8v-1.2L109.3,40.6z"/>
	<path class="st4" d="M111.7,39.7h0.9v3h0c0.1-0.3,0.4-0.5,0.6-0.6c0.3-0.1,0.6-0.3,0.9-0.3c0.6,0,1.7,0.4,1.7,2.1v2.9h-0.9V44
		c0-0.8-0.3-1.4-1.1-1.4c-0.6,0-1,0.4-1.2,0.9c0,0.1-0.1,0.3-0.1,0.4v2.9h-0.9V39.7z"/>
	<path class="st4" d="M117.8,44.5c0,1.2,0.8,1.7,1.7,1.7c0.6,0,1-0.1,1.3-0.3l0.1,0.6c-0.3,0.1-0.8,0.3-1.6,0.3
		c-1.5,0-2.4-1-2.4-2.4c0-1.5,0.9-2.6,2.3-2.6c1.6,0,2,1.4,2,2.3c0,0.2,0,0.3,0,0.4H117.8z M120.4,43.9c0-0.6-0.2-1.4-1.2-1.4
		c-0.9,0-1.3,0.8-1.3,1.4H120.4z"/>
	<path class="st4" d="M125.7,46.8v-2.9l-2.1-3.9h1l1,1.9c0.3,0.5,0.5,0.9,0.7,1.4h0c0.2-0.4,0.4-0.9,0.7-1.4l1-1.9h1l-2.3,3.9v2.9
		H125.7z"/>
	<path class="st4" d="M129.4,44.5c0,1.2,0.8,1.7,1.7,1.7c0.6,0,1-0.1,1.3-0.3l0.1,0.6c-0.3,0.1-0.8,0.3-1.6,0.3
		c-1.5,0-2.4-1-2.4-2.4c0-1.5,0.9-2.6,2.3-2.6c1.6,0,2,1.4,2,2.3c0,0.2,0,0.3,0,0.4H129.4z M132,43.9c0-0.6-0.2-1.4-1.2-1.4
		c-0.9,0-1.3,0.8-1.3,1.4H132z"/>
	<path class="st4" d="M136.7,46.8l-0.1-0.6h0c-0.3,0.4-0.8,0.7-1.5,0.7c-1,0-1.5-0.7-1.5-1.4c0-1.2,1-1.8,2.9-1.8v-0.1
		c0-0.4-0.1-1.1-1.1-1.1c-0.5,0-0.9,0.1-1.3,0.4l-0.2-0.6c0.4-0.3,1-0.4,1.6-0.4c1.5,0,1.8,1,1.8,2v1.8c0,0.4,0,0.8,0.1,1.2H136.7z
		 M136.6,44.3c-1,0-2,0.2-2,1.1c0,0.6,0.4,0.8,0.8,0.8c0.6,0,1-0.4,1.2-0.8c0-0.1,0-0.2,0-0.3V44.3z"/>
	<path class="st4" d="M139,43.5c0-0.6,0-1.1,0-1.5h0.8l0,0.9h0c0.2-0.6,0.7-1.1,1.3-1.1c0.1,0,0.2,0,0.3,0v0.8c-0.1,0-0.2,0-0.3,0
		c-0.6,0-1.1,0.5-1.2,1.1c0,0.1,0,0.3,0,0.4v2.6H139V43.5z"/>
</g>
</svg>
