<?xml version="1.0" encoding="utf-8"?>
<!-- Generator: Adobe Illustrator 22.1.0, SVG Export Plug-In . SVG Version: 6.00 Build 0)  -->
<svg version="1.1" id="Layer_1" xmlns="http://www.w3.org/2000/svg" xmlns:xlink="http://www.w3.org/1999/xlink" x="0px" y="0px"
	 viewBox="0 0 172.4 57.6" style="enable-background:new 0 0 172.4 57.6;" xml:space="preserve">
<style type="text/css">
	.st0{fill:#333D47;}
	.st1{fill:#92DEFF;}
	.st2{fill:#6778F2;}
	.st3{fill:#3B69F2;}
	.st4{fill:#FFFFFF;}
</style>
<title>South America Partner of the Year</title>
<path class="st0" d="M172.4,57.7h-143V0.8h137.9c2.8,0,5.1,2.3,5.1,5.1V57.7z"/>
<path class="st1" d="M5.8,1.3C28.4-7.1,79,27,45,42.7c-12.9,5.9-29.8,6.4-38.6-6.2C0.8,28.4-4.4,5.5,5.8,1.3z"/>
<path class="st2" d="M32.8,0.9c-3-0.5-6.1-0.3-9,0.4c-0.4,0.1-0.9,0.2-1.3,0.4c14.8,4,30.2,14.8,33.1,25.5l0.6-0.8
	c0.9-1.2,1.6-2.4,2.2-3.7C61.9,13.6,41.4,2.2,32.8,0.9z"/>
<path class="st3" d="M23.8,1.3C16.1,3.4,10,9.6,6.7,17.6C-5.2,47,42.8,44.4,56.3,26.5C53.9,15.9,38.5,5,23.8,1.3z"/>
<path class="st4" d="M35.8,15.3c-1.8,0-3.5,0.7-4.7,2c-2.3-2.6-6.3-2.8-8.9-0.5c-1.3,1.2-2.1,2.9-2.1,4.7v7.7h3.4v-7.7
	c0-1.7,1.3-3,3-3s3,1.3,3,3v7.7h3.3v-7.7c0-1.7,1.3-3,3-3s3,1.3,3,3v7.7h3.3v-7.7C42.1,18.1,39.3,15.3,35.8,15.3z"/>
<path class="st4" d="M18.7,10.5c1.3,0,2.4,1.1,2.4,2.4s-1.1,2.4-2.4,2.4s-2.4-1.1-2.4-2.4l0,0C16.3,11.6,17.4,10.5,18.7,10.5z"/>
<path class="st4" d="M64.6,13.4c0-0.7,0.6-1.2,1.2-1.1c0.1,0,0.3,0,0.4,0.1s0.3,0.1,0.4,0.2c0.1,0.1,0.2,0.2,0.3,0.4
	c0.1,0.3,0.1,0.6,0,0.9c-0.1,0.1-0.1,0.3-0.3,0.4c-0.1,0.1-0.2,0.2-0.4,0.3c-0.6,0.3-1.3,0-1.5-0.6l0,0
	C64.6,13.7,64.5,13.5,64.6,13.4z M64.8,15.3h1.8V21h-1.8V15.3z"/>
<path class="st4" d="M77.1,21h-1.9v-5.1L73.4,21H72l-1.8-5.2V21h-1.9v-8.3h2.2l2.2,5.8l2.2-5.8h2.2L77.1,21L77.1,21z"/>
<path class="st4" d="M84.4,15.3V21h-1.8v-0.8c-0.1,0.1-0.2,0.3-0.3,0.4c-0.1,0.1-0.3,0.2-0.4,0.3c-0.2,0.1-0.3,0.2-0.5,0.2
	s-0.4,0.1-0.6,0.1c-0.4,0-0.8-0.1-1.1-0.2c-0.3-0.1-0.6-0.4-0.9-0.6c-0.3-0.3-0.4-0.6-0.6-1C78.1,19,78,18.5,78,18.1
	s0.1-0.8,0.2-1.1c0.1-0.4,0.3-0.7,0.6-1c0.2-0.3,0.5-0.5,0.9-0.6c0.4-0.2,0.7-0.2,1.1-0.2c0.2,0,0.4,0,0.6,0.1
	c0.2,0,0.3,0.1,0.5,0.2c0.2,0.1,0.3,0.2,0.4,0.3s0.2,0.2,0.3,0.4v-0.8L84.4,15.3z M81.2,19.6c0.2,0,0.4,0,0.6-0.1s0.3-0.2,0.4-0.3
	c0.1-0.1,0.2-0.3,0.3-0.5c0.1-0.2,0.1-0.4,0.1-0.6s0-0.4-0.1-0.6s-0.2-0.3-0.3-0.5c-0.1-0.1-0.3-0.2-0.4-0.3
	c-0.2-0.1-0.4-0.1-0.6-0.1s-0.4,0-0.6,0.1s-0.3,0.2-0.4,0.3c-0.1,0.1-0.2,0.3-0.3,0.5c-0.1,0.2-0.1,0.4-0.1,0.6s0,0.4,0.1,0.6
	s0.2,0.3,0.3,0.5c0.1,0.1,0.3,0.2,0.4,0.3C80.8,19.6,81,19.6,81.2,19.6z"/>
<path class="st4" d="M85.9,15.3h1.8v0.8c0.2-0.3,0.4-0.6,0.7-0.7c0.4-0.2,0.8-0.3,1.2-0.3c0.3,0,0.7,0,1,0.2
	c0.3,0.1,0.5,0.3,0.7,0.5s0.3,0.5,0.4,0.8c0.1,0.3,0.1,0.7,0.1,1.1V21h-1.9v-2.9c0-0.3-0.1-0.7-0.2-1c-0.2-0.3-0.5-0.4-0.8-0.4
	s-0.6,0.1-0.8,0.4c-0.2,0.3-0.3,0.7-0.3,1.1V21H86L85.9,15.3L85.9,15.3z"/>
<path class="st4" d="M99.2,15.3V21h-1.8v-0.8c-0.1,0.1-0.2,0.3-0.3,0.4c-0.1,0.1-0.3,0.2-0.4,0.3c-0.2,0.1-0.3,0.2-0.5,0.2
	s-0.4,0.1-0.6,0.1c-0.4,0-0.8-0.1-1.1-0.2c-0.3-0.1-0.6-0.4-0.9-0.6c-0.3-0.3-0.4-0.6-0.6-1c-0.1-0.4-0.2-0.8-0.2-1.2
	c0-0.4,0.1-0.8,0.2-1.1c0.1-0.4,0.3-0.7,0.6-1c0.2-0.3,0.5-0.5,0.9-0.6c0.4-0.2,0.7-0.2,1.1-0.2c0.2,0,0.4,0,0.6,0.1
	c0.2,0,0.3,0.1,0.5,0.2c0.2,0.1,0.3,0.2,0.4,0.3s0.2,0.2,0.3,0.4v-0.8L99.2,15.3z M96,19.6c0.2,0,0.4,0,0.6-0.1s0.3-0.2,0.4-0.3
	c0.1-0.1,0.2-0.3,0.3-0.5c0.1-0.2,0.1-0.4,0.1-0.6s0-0.4-0.1-0.6S97.1,17.2,97,17c-0.1-0.1-0.3-0.2-0.4-0.3
	c-0.2-0.1-0.4-0.1-0.6-0.1s-0.4,0-0.6,0.1S95.1,16.9,95,17c-0.1,0.1-0.2,0.3-0.3,0.5c-0.1,0.2-0.1,0.4-0.1,0.6s0,0.4,0.1,0.6
	s0.2,0.3,0.3,0.5c0.1,0.1,0.3,0.2,0.4,0.3C95.6,19.6,95.8,19.6,96,19.6z"/>
<path class="st4" d="M106.7,21c0,0.4-0.1,0.9-0.2,1.3c-0.1,0.3-0.4,0.6-0.7,0.9c-0.3,0.2-0.6,0.4-1,0.5s-0.9,0.2-1.4,0.2
	s-0.9,0-1.3-0.2c-0.3-0.1-0.6-0.3-0.9-0.5s-0.5-0.5-0.6-0.7c-0.1-0.3-0.2-0.6-0.2-0.9h1.8c0,0.3,0.2,0.5,0.3,0.7
	c0.3,0.2,0.6,0.3,0.9,0.3c0.4,0,0.7-0.1,1-0.3c0.3-0.3,0.4-0.6,0.4-1v-1c-0.2,0.3-0.4,0.5-0.7,0.6c-0.3,0.2-0.7,0.2-1,0.3
	c-0.4,0-0.8-0.1-1.1-0.2c-0.3-0.1-0.6-0.3-0.9-0.6c-0.3-0.3-0.5-0.6-0.6-0.9c-0.1-0.4-0.2-0.8-0.2-1.2c0-0.4,0.1-0.8,0.2-1.2
	c0.1-0.4,0.3-0.7,0.6-1c0.3-0.3,0.6-0.5,0.9-0.6c0.4-0.2,0.8-0.2,1.2-0.2c0.3,0,0.7,0.1,1,0.3s0.6,0.4,0.7,0.7v-0.8h1.8L106.7,21z
	 M103.5,16.7c-0.2,0-0.4,0-0.6,0.1s-0.3,0.2-0.4,0.3c-0.1,0.1-0.2,0.3-0.3,0.5c-0.1,0.2-0.1,0.4-0.1,0.6s0,0.4,0.1,0.6
	s0.1,0.3,0.3,0.5c0.1,0.1,0.3,0.2,0.4,0.3c0.2,0.1,0.4,0.1,0.6,0.1s0.4,0,0.6-0.1c0.3-0.2,0.6-0.4,0.7-0.8c0.1-0.2,0.1-0.4,0.1-0.6
	s0-0.4-0.1-0.6s-0.2-0.3-0.3-0.5c-0.1-0.1-0.3-0.2-0.4-0.3C103.9,16.7,103.7,16.7,103.5,16.7L103.5,16.7z"/>
<path class="st4" d="M109.7,18.6c0,0.2,0,0.3,0.1,0.5c0,0.1,0.1,0.3,0.2,0.4s0.2,0.2,0.4,0.3c0.2,0.1,0.4,0.1,0.6,0.1
	c0.3,0,0.5-0.1,0.7-0.2s0.3-0.3,0.3-0.5h1.8c0,0.3-0.1,0.5-0.3,0.8c-0.2,0.2-0.4,0.5-0.6,0.6c-0.3,0.2-0.5,0.3-0.8,0.4
	c-0.4,0.1-0.7,0.2-1.1,0.1c-0.5,0-0.9-0.1-1.3-0.2s-0.7-0.3-1-0.6c-0.3-0.3-0.5-0.6-0.6-1s-0.2-0.8-0.2-1.2c0-0.4,0.1-0.8,0.2-1.2
	c0.1-0.4,0.3-0.7,0.6-0.9c0.3-0.3,0.6-0.5,1-0.6c0.8-0.3,1.7-0.3,2.5,0c0.3,0.1,0.7,0.3,0.9,0.6c0.5,0.5,0.8,1.1,0.8,1.8
	c0,0.1,0,0.2,0,0.4c0,0.2,0,0.3-0.1,0.5L109.7,18.6z M110.9,16.3c-0.3,0-0.6,0.1-0.9,0.3c-0.2,0.2-0.4,0.6-0.3,0.9h2.4
	c0-0.3-0.1-0.6-0.3-0.9C111.5,16.4,111.2,16.3,110.9,16.3z"/>
<g>
	<path class="st4" d="M64.1,35.9v-0.5l0.7-0.7c1.7-1.6,2.4-2.4,2.4-3.4c0-0.7-0.3-1.3-1.3-1.3c-0.6,0-1.1,0.3-1.4,0.5l-0.3-0.6
		c0.4-0.4,1.1-0.7,1.8-0.7c1.4,0,2,1,2,1.9c0,1.2-0.9,2.2-2.2,3.5l-0.5,0.5v0h2.9v0.7H64.1z"/>
	<path class="st4" d="M73.6,32.5c0,2.2-0.8,3.4-2.3,3.4c-1.3,0-2.1-1.2-2.1-3.3c0-2.2,0.9-3.4,2.3-3.4
		C72.8,29.3,73.6,30.5,73.6,32.5z M70,32.6c0,1.7,0.5,2.6,1.3,2.6c0.9,0,1.3-1,1.3-2.7c0-1.6-0.4-2.6-1.3-2.6
		C70.6,29.9,70,30.9,70,32.6z"/>
	<path class="st4" d="M76.3,30.2L76.3,30.2l-1.1,0.6L75,30.1l1.4-0.8h0.7v6.5h-0.8V30.2z"/>
	<path class="st4" d="M79.4,34.2c0-0.8,0.5-1.4,1.3-1.7l0,0c-0.7-0.3-1-0.9-1-1.5c0-1,0.9-1.7,2-1.7c1.3,0,1.9,0.8,1.9,1.6
		c0,0.5-0.3,1.1-1.1,1.5v0c0.8,0.3,1.3,0.9,1.3,1.7c0,1.1-1,1.9-2.2,1.9C80.2,36,79.4,35.2,79.4,34.2z M82.9,34.2
		c0-0.8-0.5-1.2-1.4-1.4c-0.8,0.2-1.2,0.7-1.2,1.3c0,0.7,0.5,1.2,1.3,1.2C82.4,35.3,82.9,34.8,82.9,34.2z M80.5,30.9
		c0,0.6,0.5,1,1.2,1.2c0.6-0.2,1-0.6,1-1.2c0-0.5-0.3-1.1-1.1-1.1C80.9,29.9,80.5,30.4,80.5,30.9z"/>
	<path class="st4" d="M91.8,35.6c-0.3,0.2-1,0.3-1.8,0.3c-1.9,0-3.3-1.2-3.3-3.4c0-2.1,1.4-3.5,3.5-3.5c0.8,0,1.4,0.2,1.6,0.3
		L91.6,30c-0.3-0.2-0.8-0.3-1.4-0.3c-1.6,0-2.6,1-2.6,2.8c0,1.6,0.9,2.7,2.6,2.7c0.5,0,1.1-0.1,1.4-0.3L91.8,35.6z"/>
	<path class="st4" d="M92.8,28.8h0.9v7.1h-0.9V28.8z"/>
	<path class="st4" d="M99.6,33.4c0,1.8-1.2,2.6-2.4,2.6c-1.3,0-2.3-1-2.3-2.5c0-1.6,1.1-2.6,2.4-2.6C98.6,30.9,99.6,31.9,99.6,33.4z
		 M95.7,33.5c0,1.1,0.6,1.9,1.5,1.9c0.8,0,1.5-0.8,1.5-1.9c0-0.8-0.4-1.9-1.4-1.9C96.2,31.6,95.7,32.5,95.7,33.5z"/>
	<path class="st4" d="M104.7,34.5c0,0.5,0,0.9,0,1.3H104l0-0.8h0c-0.2,0.4-0.7,0.9-1.6,0.9c-0.8,0-1.7-0.4-1.7-2.1V31h0.9v2.7
		c0,0.9,0.3,1.5,1.1,1.5c0.6,0,1-0.4,1.2-0.8c0-0.1,0.1-0.3,0.1-0.5v-3h0.9V34.5z"/>
	<path class="st4" d="M110.4,28.8v5.8c0,0.4,0,0.9,0,1.2h-0.8l0-0.8h0c-0.3,0.5-0.9,1-1.6,1c-1.2,0-2.1-1-2.1-2.5
		c0-1.6,1-2.6,2.2-2.6c0.7,0,1.2,0.3,1.5,0.7h0v-2.9H110.4z M109.5,33c0-0.1,0-0.3,0-0.4c-0.1-0.6-0.6-1-1.3-1
		c-0.9,0-1.4,0.8-1.4,1.9c0,1,0.5,1.8,1.4,1.8c0.6,0,1.1-0.4,1.3-1c0-0.1,0-0.2,0-0.4V33z"/>
	<path class="st4" d="M117.5,32.7h-2.6v2.4h2.9v0.7H114v-6.7h3.6v0.7h-2.8V32h2.6V32.7z"/>
	<path class="st4" d="M119.1,31l0.9,2.7c0.2,0.4,0.3,0.8,0.4,1.2h0c0.1-0.4,0.3-0.8,0.4-1.2l0.9-2.7h0.9l-1.9,4.8H120l-1.8-4.8
		H119.1z"/>
	<path class="st4" d="M126.3,35.9l-0.1-0.6h0c-0.3,0.4-0.8,0.7-1.5,0.7c-1,0-1.5-0.7-1.5-1.4c0-1.2,1-1.8,2.9-1.8v-0.1
		c0-0.4-0.1-1.1-1.1-1.1c-0.5,0-0.9,0.1-1.3,0.4l-0.2-0.6c0.4-0.3,1-0.4,1.6-0.4c1.5,0,1.8,1,1.8,2v1.8c0,0.4,0,0.8,0.1,1.2H126.3z
		 M126.1,33.4c-1,0-2,0.2-2,1.1c0,0.6,0.4,0.8,0.8,0.8c0.6,0,1-0.4,1.2-0.8c0-0.1,0-0.2,0-0.3V33.4z"/>
	<path class="st4" d="M128.4,32.3c0-0.5,0-0.9,0-1.3h0.8l0.1,0.8h0c0.2-0.5,0.8-0.9,1.6-0.9c0.7,0,1.7,0.4,1.7,2.1v2.9h-0.9v-2.8
		c0-0.8-0.3-1.4-1.1-1.4c-0.6,0-1,0.4-1.2,0.9c0,0.1-0.1,0.3-0.1,0.4v2.9h-0.9V32.3z"/>
	<path class="st4" d="M138.1,31c0,0.3,0,0.7,0,1.3v2.8c0,1.1-0.2,1.8-0.7,2.2c-0.5,0.4-1.1,0.6-1.8,0.6c-0.6,0-1.2-0.1-1.6-0.4
		l0.2-0.7c0.3,0.2,0.8,0.4,1.4,0.4c0.9,0,1.6-0.5,1.6-1.7V35h0c-0.3,0.4-0.8,0.8-1.5,0.8c-1.2,0-2.1-1-2.1-2.4
		c0-1.6,1.1-2.6,2.2-2.6c0.8,0,1.3,0.4,1.5,0.8h0l0-0.7H138.1z M137.2,32.9c0-0.1,0-0.3-0.1-0.4c-0.2-0.5-0.6-0.9-1.2-0.9
		c-0.8,0-1.4,0.7-1.4,1.8c0,0.9,0.5,1.7,1.4,1.7c0.5,0,1-0.3,1.2-0.9c0-0.2,0.1-0.3,0.1-0.5V32.9z"/>
	<path class="st4" d="M140,33.6c0,1.2,0.8,1.7,1.7,1.7c0.6,0,1-0.1,1.3-0.2l0.1,0.6c-0.3,0.1-0.8,0.3-1.6,0.3c-1.5,0-2.4-1-2.4-2.4
		s0.9-2.6,2.3-2.6c1.6,0,2,1.4,2,2.3c0,0.2,0,0.3,0,0.4H140z M142.6,33c0-0.6-0.2-1.4-1.2-1.4c-0.9,0-1.3,0.8-1.3,1.4H142.6z"/>
	<path class="st4" d="M144.5,28.8h0.9v7.1h-0.9V28.8z"/>
	<path class="st4" d="M147.9,29.7c0,0.3-0.2,0.5-0.6,0.5c-0.3,0-0.5-0.2-0.5-0.5c0-0.3,0.2-0.5,0.5-0.5
		C147.7,29.1,147.9,29.4,147.9,29.7z M146.9,35.9V31h0.9v4.8H146.9z"/>
	<path class="st4" d="M149.1,35c0.3,0.2,0.7,0.3,1.2,0.3c0.6,0,0.9-0.3,0.9-0.7c0-0.4-0.3-0.6-0.9-0.9c-0.9-0.3-1.3-0.8-1.3-1.4
		c0-0.8,0.6-1.4,1.7-1.4c0.5,0,0.9,0.1,1.2,0.3l-0.2,0.6c-0.2-0.1-0.5-0.3-1-0.3c-0.5,0-0.8,0.3-0.8,0.7c0,0.4,0.3,0.6,0.9,0.8
		c0.8,0.3,1.3,0.7,1.3,1.5c0,0.8-0.7,1.4-1.8,1.4c-0.5,0-1-0.1-1.4-0.3L149.1,35z"/>
	<path class="st4" d="M154.3,29.6V31h1.3v0.7h-1.3v2.6c0,0.6,0.2,0.9,0.7,0.9c0.2,0,0.4,0,0.5-0.1l0,0.7c-0.2,0.1-0.4,0.1-0.8,0.1
		c-0.4,0-0.7-0.1-0.9-0.4c-0.3-0.3-0.3-0.7-0.3-1.3v-2.6h-0.8V31h0.8v-1.2L154.3,29.6z"/>
	<path class="st4" d="M67.1,44.9L67,44.3h0c-0.3,0.4-0.8,0.7-1.5,0.7c-1,0-1.5-0.7-1.5-1.4c0-1.2,1-1.8,2.9-1.8v-0.1
		c0-0.4-0.1-1.1-1.1-1.1c-0.4,0-0.9,0.1-1.3,0.4l-0.2-0.6c0.4-0.3,1-0.4,1.6-0.4c1.5,0,1.8,1,1.8,2v1.8c0,0.4,0,0.8,0.1,1.2H67.1z
		 M66.9,42.4c-1,0-2,0.2-2,1.1c0,0.6,0.4,0.8,0.8,0.8c0.6,0,1-0.4,1.2-0.8c0-0.1,0.1-0.2,0.1-0.3V42.4z"/>
	<path class="st4" d="M69.2,41.3c0-0.5,0-0.9,0-1.3H70l0,0.8h0c0.2-0.5,0.8-0.9,1.6-0.9c0.7,0,1.7,0.4,1.7,2.1v2.9h-0.9v-2.8
		c0-0.8-0.3-1.4-1.1-1.4c-0.6,0-1,0.4-1.2,0.9c0,0.1-0.1,0.3-0.1,0.4v2.9h-0.9V41.3z"/>
	<path class="st4" d="M78.9,37.8v5.8c0,0.4,0,0.9,0,1.2h-0.8l0-0.8h0c-0.3,0.5-0.9,1-1.6,1c-1.2,0-2.1-1-2.1-2.5
		c0-1.6,1-2.6,2.2-2.6c0.7,0,1.2,0.3,1.5,0.7h0v-2.9H78.9z M78.1,42c0-0.1,0-0.3,0-0.4c-0.1-0.6-0.6-1-1.3-1c-0.9,0-1.4,0.8-1.4,1.9
		c0,1,0.5,1.8,1.4,1.8c0.6,0,1.1-0.4,1.3-1c0-0.1,0-0.2,0-0.4V42z"/>
	<path class="st4" d="M82.6,38.2c0.5-0.1,1.2-0.1,1.8-0.1c1.2,0,2.1,0.3,2.7,0.8c0.6,0.5,0.9,1.3,0.9,2.4c0,1.1-0.3,2-1,2.6
		c-0.6,0.6-1.7,1-3,1c-0.6,0-1.1,0-1.6-0.1V38.2z M83.4,44.2c0.2,0,0.5,0,0.9,0c1.9,0,2.9-1,2.9-2.9c0-1.6-0.9-2.6-2.7-2.6
		c-0.4,0-0.8,0-1,0.1V44.2z"/>
	<path class="st4" d="M89.7,42.6c0,1.2,0.8,1.7,1.7,1.7c0.6,0,1-0.1,1.3-0.2l0.1,0.6C92.6,44.8,92,45,91.3,45c-1.5,0-2.4-1-2.4-2.4
		s0.9-2.6,2.3-2.6c1.6,0,2,1.4,2,2.3c0,0.2,0,0.3,0,0.4H89.7z M92.3,42c0-0.6-0.2-1.4-1.2-1.4c-0.9,0-1.3,0.8-1.3,1.4H92.3z"/>
	<path class="st4" d="M94.2,41.6c0-0.6,0-1.1,0-1.6H95l0,0.8h0c0.4-0.6,0.9-0.9,1.7-0.9c1.2,0,2,1,2,2.5c0,1.7-1.1,2.6-2.2,2.6
		c-0.6,0-1.2-0.3-1.5-0.8h0v2.6h-0.9V41.6z M95.1,42.9c0,0.1,0,0.3,0,0.4c0.2,0.6,0.7,1,1.3,1c0.9,0,1.5-0.8,1.5-1.9
		c0-1-0.5-1.8-1.4-1.8c-0.6,0-1.2,0.4-1.3,1.1c0,0.1-0.1,0.2-0.1,0.4V42.9z"/>
	<path class="st4" d="M99.9,37.8h0.9v7.1h-0.9V37.8z"/>
	<path class="st4" d="M106.7,42.4c0,1.8-1.2,2.6-2.4,2.6c-1.3,0-2.3-1-2.3-2.5c0-1.6,1.1-2.6,2.4-2.6
		C105.7,39.9,106.7,40.9,106.7,42.4z M102.8,42.5c0,1.1,0.6,1.9,1.5,1.9c0.8,0,1.5-0.8,1.5-1.9c0-0.8-0.4-1.9-1.4-1.9
		C103.3,40.6,102.8,41.5,102.8,42.5z"/>
	<path class="st4" d="M108,40l1.1,2.9c0.1,0.3,0.2,0.7,0.3,1h0c0.1-0.3,0.2-0.7,0.3-1l1-2.8h0.9l-1.3,3.4c-0.6,1.7-1.1,2.5-1.7,3
		c-0.4,0.4-0.9,0.5-1.1,0.6l-0.2-0.7c0.2-0.1,0.5-0.2,0.8-0.4c0.2-0.2,0.5-0.5,0.7-1c0-0.1,0.1-0.2,0.1-0.2c0,0,0-0.1-0.1-0.2
		l-1.8-4.5H108z"/>
	<path class="st4" d="M112.4,41.3c0-0.5,0-0.9,0-1.3h0.8l0,0.8h0c0.3-0.5,0.7-0.9,1.5-0.9c0.7,0,1.2,0.4,1.4,1h0
		c0.2-0.3,0.3-0.5,0.5-0.6c0.3-0.2,0.6-0.3,1.1-0.3c0.6,0,1.6,0.4,1.6,2.1v2.8h-0.9v-2.7c0-0.9-0.3-1.5-1-1.5c-0.5,0-0.9,0.4-1,0.8
		c0,0.1-0.1,0.3-0.1,0.4v3h-0.9V42c0-0.8-0.3-1.3-1-1.3c-0.5,0-0.9,0.4-1.1,0.9c0,0.1-0.1,0.3-0.1,0.4v2.9h-0.9V41.3z"/>
	<path class="st4" d="M121.2,42.6c0,1.2,0.8,1.7,1.7,1.7c0.6,0,1-0.1,1.3-0.2l0.1,0.6c-0.3,0.1-0.8,0.3-1.6,0.3
		c-1.5,0-2.4-1-2.4-2.4s0.9-2.6,2.3-2.6c1.6,0,2,1.4,2,2.3c0,0.2,0,0.3,0,0.4H121.2z M123.8,42c0-0.6-0.2-1.4-1.2-1.4
		c-0.9,0-1.3,0.8-1.3,1.4H123.8z"/>
	<path class="st4" d="M125.8,41.3c0-0.5,0-0.9,0-1.3h0.8l0.1,0.8h0c0.2-0.5,0.8-0.9,1.6-0.9c0.7,0,1.7,0.4,1.7,2.1v2.9H129v-2.8
		c0-0.8-0.3-1.4-1.1-1.4c-0.6,0-1,0.4-1.2,0.9c0,0.1-0.1,0.3-0.1,0.4v2.9h-0.9V41.3z"/>
	<path class="st4" d="M132.3,38.6V40h1.3v0.7h-1.3v2.6c0,0.6,0.2,0.9,0.7,0.9c0.2,0,0.4,0,0.5-0.1l0,0.7c-0.2,0.1-0.4,0.1-0.8,0.1
		c-0.4,0-0.7-0.1-0.9-0.4c-0.3-0.3-0.3-0.7-0.3-1.3v-2.6h-0.8V40h0.8v-1.2L132.3,38.6z"/>
	<path class="st4" d="M137.8,42.7l-0.7,2.1h-0.9l2.3-6.7h1l2.3,6.7h-0.9l-0.7-2.1H137.8z M140,42.1l-0.7-1.9
		c-0.2-0.4-0.3-0.8-0.4-1.2h0c-0.1,0.4-0.2,0.8-0.3,1.2l-0.7,1.9H140z"/>
	<path class="st4" d="M143,40l0.6,2.5c0.1,0.5,0.3,1,0.4,1.5h0c0.1-0.5,0.3-1,0.4-1.5l0.8-2.5h0.7l0.8,2.4c0.2,0.6,0.3,1.1,0.4,1.6
		h0c0.1-0.5,0.2-1,0.4-1.6l0.7-2.4h0.9l-1.6,4.8h-0.8l-0.7-2.3c-0.2-0.5-0.3-1-0.4-1.6h0c-0.1,0.6-0.3,1.1-0.4,1.6l-0.8,2.3h-0.8
		l-1.5-4.8H143z"/>
	<path class="st4" d="M152.6,44.9l-0.1-0.6h0c-0.3,0.4-0.8,0.7-1.5,0.7c-1,0-1.5-0.7-1.5-1.4c0-1.2,1-1.8,2.9-1.8v-0.1
		c0-0.4-0.1-1.1-1.1-1.1c-0.5,0-0.9,0.1-1.3,0.4l-0.2-0.6c0.4-0.3,1-0.4,1.6-0.4c1.5,0,1.8,1,1.8,2v1.8c0,0.4,0,0.8,0.1,1.2H152.6z
		 M152.5,42.4c-1,0-2,0.2-2,1.1c0,0.6,0.4,0.8,0.8,0.8c0.6,0,1-0.4,1.2-0.8c0-0.1,0-0.2,0-0.3V42.4z"/>
	<path class="st4" d="M154.8,41.5c0-0.6,0-1.1,0-1.5h0.8l0,0.9h0c0.2-0.6,0.7-1.1,1.3-1.1c0.1,0,0.2,0,0.3,0v0.8c-0.1,0-0.2,0-0.3,0
		c-0.6,0-1.1,0.5-1.2,1.1c0,0.1,0,0.3,0,0.4v2.6h-0.9V41.5z"/>
	<path class="st4" d="M162.1,37.8v5.8c0,0.4,0,0.9,0,1.2h-0.8l0-0.8h0c-0.3,0.5-0.9,1-1.6,1c-1.2,0-2.1-1-2.1-2.5
		c0-1.6,1-2.6,2.2-2.6c0.7,0,1.2,0.3,1.5,0.7h0v-2.9H162.1z M161.2,42c0-0.1,0-0.3,0-0.4c-0.1-0.6-0.6-1-1.3-1
		c-0.9,0-1.4,0.8-1.4,1.9c0,1,0.5,1.8,1.4,1.8c0.6,0,1.1-0.4,1.3-1c0-0.1,0-0.2,0-0.4V42z"/>
	<path class="st4" d="M64.3,52.8c0.4,0.2,1,0.4,1.6,0.4c0.9,0,1.4-0.5,1.4-1.1c0-0.6-0.4-1-1.3-1.3c-1.1-0.4-1.8-1-1.8-1.9
		c0-1,0.9-1.8,2.2-1.8c0.7,0,1.2,0.2,1.5,0.3l-0.2,0.7c-0.2-0.1-0.7-0.3-1.3-0.3c-0.9,0-1.3,0.5-1.3,1c0,0.6,0.4,0.9,1.3,1.3
		c1.1,0.4,1.7,1,1.7,2c0,1-0.8,1.9-2.4,1.9c-0.6,0-1.4-0.2-1.7-0.4L64.3,52.8z"/>
	<path class="st4" d="M73.8,51.4c0,1.8-1.2,2.6-2.4,2.6C70,54,69,53,69,51.5c0-1.6,1.1-2.6,2.4-2.6C72.8,48.9,73.8,49.9,73.8,51.4z
		 M69.9,51.5c0,1.1,0.6,1.9,1.5,1.9c0.8,0,1.5-0.8,1.5-1.9c0-0.8-0.4-1.9-1.4-1.9C70.4,49.6,69.9,50.5,69.9,51.5z"/>
	<path class="st4" d="M78.9,52.5c0,0.5,0,0.9,0,1.3h-0.8l0-0.8h0c-0.2,0.4-0.7,0.9-1.6,0.9c-0.8,0-1.7-0.4-1.7-2.1V49h0.9v2.7
		c0,0.9,0.3,1.5,1.1,1.5c0.6,0,1-0.4,1.2-0.8c0-0.1,0.1-0.3,0.1-0.5v-3h0.9V52.5z"/>
	<path class="st4" d="M81.4,47.6V49h1.3v0.7h-1.3v2.6c0,0.6,0.2,0.9,0.7,0.9c0.2,0,0.4,0,0.5-0.1l0,0.7c-0.2,0.1-0.4,0.1-0.8,0.1
		c-0.4,0-0.7-0.1-0.9-0.4c-0.3-0.3-0.3-0.7-0.3-1.3v-2.6h-0.8V49h0.8v-1.2L81.4,47.6z"/>
	<path class="st4" d="M83.7,46.8h0.9v3h0c0.1-0.2,0.4-0.5,0.6-0.6c0.3-0.2,0.6-0.3,0.9-0.3c0.6,0,1.7,0.4,1.7,2.1v2.9h-0.9v-2.8
		c0-0.8-0.3-1.4-1.1-1.4c-0.6,0-1,0.4-1.2,0.9c0,0.1-0.1,0.3-0.1,0.4v2.9h-0.9V46.8z"/>
	<path class="st4" d="M92.5,51.7l-0.7,2.1h-0.9l2.3-6.7h1l2.3,6.7h-0.9l-0.7-2.1H92.5z M94.7,51.1L94,49.1c-0.2-0.4-0.3-0.8-0.4-1.2
		h0c-0.1,0.4-0.2,0.8-0.3,1.2l-0.7,1.9H94.7z"/>
	<path class="st4" d="M97.5,50.3c0-0.5,0-0.9,0-1.3h0.8l0,0.8h0c0.3-0.5,0.7-0.9,1.5-0.9c0.7,0,1.2,0.4,1.4,1h0
		c0.2-0.3,0.3-0.5,0.5-0.6c0.3-0.2,0.6-0.3,1.1-0.3c0.6,0,1.6,0.4,1.6,2.1v2.8h-0.9v-2.7c0-0.9-0.3-1.5-1-1.5c-0.5,0-0.9,0.4-1,0.8
		c0,0.1-0.1,0.3-0.1,0.4v3h-0.9V51c0-0.8-0.3-1.3-1-1.3c-0.5,0-0.9,0.4-1.1,0.9c0,0.1-0.1,0.3-0.1,0.4v2.9h-0.9V50.3z"/>
	<path class="st4" d="M106.3,51.6c0,1.2,0.8,1.7,1.7,1.7c0.6,0,1-0.1,1.3-0.2l0.1,0.6c-0.3,0.1-0.8,0.3-1.6,0.3
		c-1.5,0-2.4-1-2.4-2.4s0.9-2.6,2.3-2.6c1.6,0,2,1.4,2,2.3c0,0.2,0,0.3,0,0.4H106.3z M108.9,51c0-0.6-0.2-1.4-1.2-1.4
		c-0.9,0-1.3,0.8-1.3,1.4H108.9z M109.1,46.9l-1.2,1.4h-0.6l0.9-1.4H109.1z"/>
	<path class="st4" d="M110.8,50.5c0-0.6,0-1.1,0-1.5h0.8l0,0.9h0c0.2-0.6,0.7-1.1,1.3-1.1c0.1,0,0.2,0,0.3,0v0.8c-0.1,0-0.2,0-0.3,0
		c-0.6,0-1.1,0.5-1.2,1.1c0,0.1,0,0.3,0,0.4v2.6h-0.9V50.5z"/>
	<path class="st4" d="M115.1,47.7c0,0.3-0.2,0.5-0.6,0.5c-0.3,0-0.5-0.2-0.5-0.5c0-0.3,0.2-0.5,0.5-0.5
		C114.9,47.1,115.1,47.4,115.1,47.7z M114.1,53.9V49h0.9v4.8H114.1z"/>
	<path class="st4" d="M119.9,53.7c-0.2,0.1-0.7,0.3-1.4,0.3c-1.5,0-2.4-1-2.4-2.5c0-1.5,1-2.6,2.6-2.6c0.5,0,1,0.1,1.2,0.3l-0.2,0.7
		c-0.2-0.1-0.5-0.2-1-0.2c-1.1,0-1.7,0.8-1.7,1.8c0,1.1,0.7,1.8,1.7,1.8c0.5,0,0.8-0.1,1.1-0.2L119.9,53.7z"/>
	<path class="st4" d="M123.6,53.9l-0.1-0.6h0c-0.3,0.4-0.8,0.7-1.5,0.7c-1,0-1.5-0.7-1.5-1.4c0-1.2,1-1.8,2.9-1.8v-0.1
		c0-0.4-0.1-1.1-1.1-1.1c-0.5,0-0.9,0.1-1.3,0.4l-0.2-0.6c0.4-0.3,1-0.4,1.6-0.4c1.5,0,1.8,1,1.8,2v1.8c0,0.4,0,0.8,0.1,1.2H123.6z
		 M123.5,51.4c-1,0-2,0.2-2,1.1c0,0.6,0.4,0.8,0.8,0.8c0.6,0,1-0.4,1.2-0.8c0-0.1,0-0.2,0-0.3V51.4z"/>
</g>
</svg>
